#usda 1.0
(
    doc = """MaterialX hair fixture: seven tufts of cubic Bézier strands, one per
    material of `hair.mtlx` — a bare `chiang_hair_bsdf`, roughness from
    `chiang_hair_roughness`, absorption from a colour and from melanin, the
    fibre mixed with a diffuse, a clear fibre, and the clear fibre's diffuse
    twin — over a grey floor, lit by the sky, a key light in front and a small
    light behind, so forward scattering shows as a rim glow on the fibres and
    not on the twin.

    Authored in centimetres (`metersPerUnit = 0.01`, the USD default): the
    tracer's absolute ray epsilon (0.001 units) is then 10 µm, below a hair's
    width, so neighbouring strands shadow and light each other.

      cargo run --release -- render -i samples/hair.usda -o hair.exr
    """
    defaultPrim = "World"
    metersPerUnit = 0.01
    upAxis = "Y"
)

def Xform "World"
{
    def Scope "Looks"
    {
        def Material "mtlx_hair_bare" (
            prepend references = @hair.mtlx@</MaterialX/Materials/mtlx_hair_bare>
        )
        {
        }

        def Material "mtlx_hair_roughness" (
            prepend references = @hair.mtlx@</MaterialX/Materials/mtlx_hair_roughness>
        )
        {
        }

        def Material "mtlx_hair_color" (
            prepend references = @hair.mtlx@</MaterialX/Materials/mtlx_hair_color>
        )
        {
        }

        def Material "mtlx_hair_melanin" (
            prepend references = @hair.mtlx@</MaterialX/Materials/mtlx_hair_melanin>
        )
        {
        }

        def Material "mtlx_hair_mix" (
            prepend references = @hair.mtlx@</MaterialX/Materials/mtlx_hair_mix>
        )
        {
        }

        def Material "mtlx_hair_clear" (
            prepend references = @hair.mtlx@</MaterialX/Materials/mtlx_hair_clear>
        )
        {
        }

        def Material "mtlx_diffuse_twin" (
            prepend references = @hair.mtlx@</MaterialX/Materials/mtlx_diffuse_twin>
        )
        {
        }

        def Material "Floor"
        {
            token outputs:surface.connect = </World/Looks/Floor/Shader.outputs:surface>
            def Shader "Shader"
            {
                uniform token info:id = "crust:openpbr"
                color3f inputs:baseColor = (0.35, 0.35, 0.34)
                float inputs:specularRoughness = 0.8
                token outputs:surface
            }
        }
    }

    def BasisCurves "Bare" (prepend apiSchemas = ["MaterialBindingAPI"])
    {
        uniform token type = "cubic"
        uniform token basis = "bezier"
        int[] curveVertexCounts = [7, 7, 7, 7, 7, 7, 7, 7, 7, 7, 7, 7, 7, 7, 7, 7, 7, 7, 7, 7, 7, 7, 7, 7, 7, 7, 7, 7, 7, 7, 7, 7, 7, 7, 7, 7, 7, 7, 7, 7, 7, 7, 7, 7, 7, 7, 7, 7]
        point3f[] points = [(-4.4037, 0, 0.068), (-4.3906, 0.5263, 0.0575), (-4.3515, 0.9977, 0.0261), (-4.2862, 1.3648, -0.0263), (-4.1948, 1.5893, -0.0996), (-4.0773, 1.6479, -0.1939), (-3.9337, 1.5343, -0.3091), (-4.0118, 0, -0.0851), (-3.999, 0.4525, -0.0779), (-3.9607, 0.8577, -0.0562), (-3.8968, 1.1734, -0.02), (-3.8073, 1.3664, 0.0306), (-3.6923, 1.4167, 0.0957), (-3.5517, 1.3191, 0.1752), (-4.3719, 0, 0.0294), (-4.3769, 0.4344, 0.0449), (-4.3917, 0.8235, 0.0912), (-4.4164, 1.1265, 0.1685), (-4.4511, 1.3118, 0.2768), (-4.4956, 1.3601, 0.4159), (-4.5499, 1.2664, 0.586), (-4.1441, 0, 0.0995), (-4.1583, 0.5053, 0.1038), (-4.2007, 0.9579, 0.1167), (-4.2715, 1.3104, 0.1383), (-4.3706, 1.526, 0.1685), (-4.498, 1.5822, 0.2073), (-4.6538, 1.4731, 0.2547), (-4.1912, 0, 0.198), (-4.2087, 0.5244, 0.1839), (-4.2611, 0.9941, 0.1414), (-4.3484, 1.3599, 0.0707), (-4.4707, 1.5837, -0.0284), (-4.6278, 1.642, -0.1557), (-4.82, 1.5288, -0.3113), (-4.2418, 0, -0.0191), (-4.2351, 0.4552, 0.0006), (-4.2148, 0.8628, 0.0598), (-4.1811, 1.1802, 0.1584), (-4.1339, 1.3744, 0.2964), (-4.0732, 1.425, 0.4739), (-3.9991, 1.3268, 0.6908), (-4.1939, 0, -0.0671), (-4.1823, 0.4823, -0.059), (-4.1472, 0.9141, -0.0346), (-4.0888, 1.2505, 0.0062), (-4.007, 1.4563, 0.0632), (-3.9019, 1.5099, 0.1365), (-3.7734, 1.4058, 0.226), (-4.0753, 0, -0.1445), (-4.0859, 0.5003, -0.1302), (-4.1177, 0.9482, -0.0871), (-4.1707, 1.2972, -0.0152), (-4.2449, 1.5106, 0.0854), (-4.3403, 1.5662, 0.2147), (-4.457, 1.4582, 0.3727), (-4.354, 0, -0.0265), (-4.3545, 0.5053, -0.0086), (-4.3559, 0.9579, 0.0452), (-4.3584, 1.3104, 0.1348), (-4.3618, 1.526, 0.2601), (-4.3662, 1.5822, 0.4214), (-4.3715, 1.4731, 0.6184), (-4.1106, 0, 0.2005), (-4.1175, 0.4225, 0.2214), (-4.138, 0.8009, 0.2842), (-4.1722, 1.0957, 0.3887), (-4.22, 1.2759, 0.535), (-4.2816, 1.3229, 0.7231), (-4.3568, 1.2317, 0.9531), (-4.361, 0, -0.0974), (-4.3625, 0.5195, -0.1189), (-4.367, 0.9847, -0.1833), (-4.3745, 1.3471, -0.2906), (-4.3851, 1.5688, -0.4408), (-4.3986, 1.6265, -0.634), (-4.4152, 1.5144, -0.87), (-4.2108, 0, 0.1846), (-4.2244, 0.481, 0.1795), (-4.2654, 0.9117, 0.1644), (-4.3336, 1.2473, 0.1392), (-4.4292, 1.4525, 0.1039), (-4.552, 1.506, 0.0586), (-4.7022, 1.4021, 0.0032), (-4.2564, 0, -0.0338), (-4.2614, 0.4879, -0.0099), (-4.2761, 0.9248, 0.0618), (-4.3007, 1.2652, 0.1814), (-4.3352, 1.4733, 0.3488), (-4.3795, 1.5276, 0.564), (-4.4337, 1.4223, 0.8271), (-4.3446, 0, 0.187), (-4.3612, 0.4625, 0.1707), (-4.4108, 0.8766, 0.122), (-4.4935, 1.1992, 0.0409), (-4.6092, 1.3966, -0.0727), (-4.7581, 1.448, -0.2188), (-4.94, 1.3481, -0.3973), (-4.1104, 0, -0.1767), (-4.0954, 0.4635, -0.1786), (-4.0501, 0.8786, -0.1845), (-3.9747, 1.2019, -0.1942), (-3.8692, 1.3996, -0.2079), (-3.7335, 1.4512, -0.2254), (-3.5676, 1.3511, -0.2469), (-4.0799, 0, 0.1591), (-4.0981, 0.5382, 0.1427), (-4.1525, 1.0201, 0.0933), (-4.2432, 1.3955, 0.011), (-4.3703, 1.6251, -0.1042), (-4.5336, 1.6849, -0.2523), (-4.7332, 1.5688, -0.4334), (-4.1337, 0, 0.0455), (-4.146, 0.4799, 0.0326), (-4.183, 0.9096, -0.0059), (-4.2447, 1.2443, -0.0702), (-4.3311, 1.449, -0.1601), (-4.4421, 1.5024, -0.2758), (-4.5778, 1.3988, -0.4171), (-4.33, 0, 0.0305), (-4.3068, 0.4344, 0.0224), (-4.2374, 0.8233, -0.0022), (-4.1218, 1.1263, -0.043), (-3.9598, 1.3116, -0.1002), (-3.7516, 1.3599, -0.1738), (-3.4971, 1.2662, -0.2637), (-4.2786, 0, -0.2154), (-4.2772, 0.4365, -0.2354), (-4.2729, 0.8273, -0.2955), (-4.2656, 1.1318, -0.3956), (-4.2555, 1.318, -0.5358), (-4.2425, 1.3665, -0.7161), (-4.2267, 1.2723, -0.9363), (-4.1418, 0, 0.2125), (-4.1587, 0.4158, 0.2049), (-4.2093, 0.7881, 0.1822), (-4.2938, 1.0781, 0.1443), (-4.412, 1.2555, 0.0912), (-4.5641, 1.3018, 0.023), (-4.7499, 1.212, -0.0604), (-4.2934, 0, 0.0381), (-4.2954, 0.4754, 0.017), (-4.3017, 0.9011, -0.0463), (-4.3121, 1.2327, -0.1519), (-4.3267, 1.4355, -0.2996), (-4.3454, 1.4884, -0.4896), (-4.3683, 1.3858, -0.7218), (-4.15, 0, -0.2278), (-4.1394, 0.51, -0.2086), (-4.1078, 0.9667, -0.151), (-4.055, 1.3224, -0.055), (-3.981, 1.54, 0.0794), (-3.886, 1.5967, 0.2522), (-3.7699, 1.4866, 0.4635), (-4.1907, 0, 0.1602), (-4.1669, 0.4588, 0.1647), (-4.0954, 0.8697, 0.1782), (-3.9762, 1.1898, 0.2007), (-3.8093, 1.3855, 0.2322), (-3.5947, 1.4365, 0.2728), (-3.3324, 1.3375, 0.3223), (-4.07, 0, 0.1096), (-4.0934, 0.5122, 0.1063), (-4.1637, 0.9709, 0.0964), (-4.2807, 1.3282, 0.08), (-4.4446, 1.5467, 0.057), (-4.6553, 1.6037, 0.0275), (-4.9129, 1.4931, -0.0087), (-3.9861, 0, 0.0161), (-3.9981, 0.4265, -0.0004), (-4.034, 0.8084, -0.0498), (-4.0939, 1.1059, -0.1322), (-4.1777, 1.2879, -0.2476), (-4.2854, 1.3353, -0.3959), (-4.417, 1.2433, -0.5772), (-4.2669, 0, 0.1692), (-4.2829, 0.5016, 0.1853), (-4.3307, 0.9508, 0.2334), (-4.4105, 1.3006, 0.3137), (-4.5222, 1.5146, 0.4261), (-4.6658, 1.5704, 0.5706), (-4.8412, 1.4621, 0.7472), (-4.2215, 0, -0.0235), (-4.2381, 0.5296, -0.0404), (-4.2877, 1.0039, -0.0909), (-4.3705, 1.3733, -0.175), (-4.4863, 1.5992, -0.2929), (-4.6352, 1.6581, -0.4444), (-4.8172, 1.5438, -0.6295), (-3.996, 0, -0.0045), (-4.0109, 0.481, 0.0138), (-4.0556, 0.9118, 0.0684), (-4.1301, 1.2473, 0.1594), (-4.2344, 1.4525, 0.2868), (-4.3684, 1.506, 0.4507), (-4.5323, 1.4022, 0.6509), (-4.3604, 0, 0.1169), (-4.3722, 0.4457, 0.1284), (-4.4074, 0.8448, 0.1628), (-4.4662, 1.1556, 0.2203), (-4.5485, 1.3458, 0.3007), (-4.6543, 1.3953, 0.404), (-4.7837, 1.2991, 0.5304), (-4.0025, 0, -0.0913), (-4.0132, 0.4543, -0.1071), (-4.0454, 0.8612, -0.1542), (-4.0991, 1.1781, -0.2327), (-4.1742, 1.3719, -0.3427), (-4.2708, 1.4225, -0.484), (-4.3889, 1.3244, -0.6568), (-4.1846, 0, 0.0418), (-4.1971, 0.44, 0.0528), (-4.2345, 0.834, 0.0859), (-4.2968, 1.1408, 0.1411), (-4.384, 1.3285, 0.2183), (-4.4962, 1.3775, 0.3175), (-4.6332, 1.2825, 0.4389), (-4.2123, 0, 0.0017), (-4.2239, 0.4724, -0.0146), (-4.2586, 0.8954, -0.0636), (-4.3164, 1.2249, -0.1452), (-4.3974, 1.4265, -0.2595), (-4.5015, 1.479, -0.4064), (-4.6288, 1.377, -0.586), (-4.0602, 0, -0.1296), (-4.0446, 0.4783, -0.1435), (-3.9975, 0.9066, -0.1853), (-3.9192, 1.2402, -0.255), (-3.8095, 1.4443, -0.3525), (-3.6684, 1.4975, -0.4779), (-3.496, 1.3942, -0.6311), (-4.3864, 0, 0.089), (-4.4013, 0.4327, 0.1005), (-4.446, 0.8202, 0.1351), (-4.5206, 1.122, 0.1928), (-4.625, 1.3066, 0.2735), (-4.7592, 1.3547, 0.3773), (-4.9232, 1.2613, 0.5041), (-4.1449, 0, 0.1622), (-4.1666, 0.4541, 0.1724), (-4.2319, 0.8607, 0.2029), (-4.3407, 1.1774, 0.2537), (-4.493, 1.3711, 0.3248), (-4.6888, 1.4216, 0.4163), (-4.9282, 1.3236, 0.5281), (-4.3375, 0, -0.0991), (-4.3468, 0.4194, -0.1107), (-4.3745, 0.795, -0.1453), (-4.4206, 1.0876, -0.2031), (-4.4852, 1.2665, -0.284), (-4.5682, 1.3132, -0.388), (-4.6697, 1.2226, -0.5152), (-4.1156, 0, -0.1446), (-4.0973, 0.5187, -0.1605), (-4.0421, 0.9833, -0.2081), (-3.9502, 1.3451, -0.2876), (-3.8215, 1.5665, -0.3988), (-3.6561, 1.6241, -0.5418), (-3.4539, 1.5122, -0.7166), (-4.3157, 0, 0.1052), (-4.33, 0.5069, 0.1161), (-4.3729, 0.9609, 0.1488), (-4.4444, 1.3145, 0.2032), (-4.5445, 1.5307, 0.2795), (-4.6732, 1.5871, 0.3775), (-4.8304, 1.4777, 0.4973), (-4.3624, 0, 0.1237), (-4.3564, 0.4167, 0.1069), (-4.3383, 0.7898, 0.0566), (-4.3082, 1.0804, -0.0272), (-4.266, 1.2582, -0.1446), (-4.2118, 1.3045, -0.2955), (-4.1455, 1.2146, -0.4799), (-4.2043, 0, -0.2094), (-4.1864, 0.5218, -0.2097), (-4.1325, 0.9891, -0.2105), (-4.0428, 1.3531, -0.212), (-3.9172, 1.5757, -0.2141), (-3.7557, 1.6337, -0.2167), (-3.5583, 1.5211, -0.2199), (-4.0398, 0, 0.0388), (-4.0521, 0.456, 0.0503), (-4.0889, 0.8643, 0.0846), (-4.1502, 1.1823, 0.1419), (-4.2361, 1.3769, 0.222), (-4.3465, 1.4276, 0.3251), (-4.4814, 1.3291, 0.451), (-4.179, 0, 0.0918), (-4.1927, 0.5063, 0.1039), (-4.2335, 0.9598, 0.1401), (-4.3017, 1.3129, 0.2005), (-4.397, 1.5289, 0.2851), (-4.5197, 1.5853, 0.3938), (-4.6695, 1.476, 0.5267), (-4.3468, 0, 0.0247), (-4.3484, 0.4336, 0.0411), (-4.3533, 0.8219, 0.0903), (-4.3615, 1.1243, 0.1723), (-4.373, 1.3093, 0.2871), (-4.3877, 1.3575, 0.4347), (-4.4057, 1.2639, 0.6151), (-4.1711, 0, 0.2003), (-4.183, 0.4999, 0.1923), (-4.219, 0.9475, 0.1683), (-4.2789, 1.2962, 0.1282), (-4.3627, 1.5094, 0.072), (-4.4705, 1.565, -0.0002), (-4.6022, 1.4571, -0.0884), (-4.2694, 0, -0.2167), (-4.2563, 0.5395, -0.2256), (-4.217, 1.0226, -0.2524), (-4.1515, 1.3989, -0.297), (-4.0598, 1.6291, -0.3595), (-3.9419, 1.6891, -0.4398), (-3.7978, 1.5726, -0.538), (-4.1834, 0, 0.2279), (-4.1839, 0.487, 0.2459), (-4.1852, 0.9232, 0.2997), (-4.1875, 1.2629, 0.3894), (-4.1907, 1.4707, 0.515), (-4.1949, 1.5249, 0.6766), (-4.1999, 1.4197, 0.874), (-4.3968, 0, 0.0252), (-4.4158, 0.4877, 0.02), (-4.4728, 0.9245, 0.0046), (-4.5678, 1.2647, -0.0211), (-4.7007, 1.4728, -0.0571), (-4.8717, 1.527, -0.1033), (-5.0807, 1.4217, -0.1599), (-4.1981, 0, -0.168), (-4.2041, 0.455, -0.1549), (-4.2221, 0.8624, -0.1155), (-4.2522, 1.1798, -0.0499), (-4.2944, 1.3739, 0.042), (-4.3486, 1.4245, 0.1602), (-4.4148, 1.3263, 0.3046)]
        float[] widths = [0.035, 0.0309, 0.0268, 0.0228, 0.0187, 0.0146, 0.0105, 0.035, 0.0309, 0.0268, 0.0228, 0.0187, 0.0146, 0.0105, 0.035, 0.0309, 0.0268, 0.0228, 0.0187, 0.0146, 0.0105, 0.035, 0.0309, 0.0268, 0.0228, 0.0187, 0.0146, 0.0105, 0.035, 0.0309, 0.0268, 0.0228, 0.0187, 0.0146, 0.0105, 0.035, 0.0309, 0.0268, 0.0228, 0.0187, 0.0146, 0.0105, 0.035, 0.0309, 0.0268, 0.0228, 0.0187, 0.0146, 0.0105, 0.035, 0.0309, 0.0268, 0.0228, 0.0187, 0.0146, 0.0105, 0.035, 0.0309, 0.0268, 0.0228, 0.0187, 0.0146, 0.0105, 0.035, 0.0309, 0.0268, 0.0228, 0.0187, 0.0146, 0.0105, 0.035, 0.0309, 0.0268, 0.0228, 0.0187, 0.0146, 0.0105, 0.035, 0.0309, 0.0268, 0.0228, 0.0187, 0.0146, 0.0105, 0.035, 0.0309, 0.0268, 0.0228, 0.0187, 0.0146, 0.0105, 0.035, 0.0309, 0.0268, 0.0228, 0.0187, 0.0146, 0.0105, 0.035, 0.0309, 0.0268, 0.0228, 0.0187, 0.0146, 0.0105, 0.035, 0.0309, 0.0268, 0.0228, 0.0187, 0.0146, 0.0105, 0.035, 0.0309, 0.0268, 0.0228, 0.0187, 0.0146, 0.0105, 0.035, 0.0309, 0.0268, 0.0228, 0.0187, 0.0146, 0.0105, 0.035, 0.0309, 0.0268, 0.0228, 0.0187, 0.0146, 0.0105, 0.035, 0.0309, 0.0268, 0.0228, 0.0187, 0.0146, 0.0105, 0.035, 0.0309, 0.0268, 0.0228, 0.0187, 0.0146, 0.0105, 0.035, 0.0309, 0.0268, 0.0228, 0.0187, 0.0146, 0.0105, 0.035, 0.0309, 0.0268, 0.0228, 0.0187, 0.0146, 0.0105, 0.035, 0.0309, 0.0268, 0.0228, 0.0187, 0.0146, 0.0105, 0.035, 0.0309, 0.0268, 0.0228, 0.0187, 0.0146, 0.0105, 0.035, 0.0309, 0.0268, 0.0228, 0.0187, 0.0146, 0.0105, 0.035, 0.0309, 0.0268, 0.0228, 0.0187, 0.0146, 0.0105, 0.035, 0.0309, 0.0268, 0.0228, 0.0187, 0.0146, 0.0105, 0.035, 0.0309, 0.0268, 0.0228, 0.0187, 0.0146, 0.0105, 0.035, 0.0309, 0.0268, 0.0228, 0.0187, 0.0146, 0.0105, 0.035, 0.0309, 0.0268, 0.0228, 0.0187, 0.0146, 0.0105, 0.035, 0.0309, 0.0268, 0.0228, 0.0187, 0.0146, 0.0105, 0.035, 0.0309, 0.0268, 0.0228, 0.0187, 0.0146, 0.0105, 0.035, 0.0309, 0.0268, 0.0228, 0.0187, 0.0146, 0.0105, 0.035, 0.0309, 0.0268, 0.0228, 0.0187, 0.0146, 0.0105, 0.035, 0.0309, 0.0268, 0.0228, 0.0187, 0.0146, 0.0105, 0.035, 0.0309, 0.0268, 0.0228, 0.0187, 0.0146, 0.0105, 0.035, 0.0309, 0.0268, 0.0228, 0.0187, 0.0146, 0.0105, 0.035, 0.0309, 0.0268, 0.0228, 0.0187, 0.0146, 0.0105, 0.035, 0.0309, 0.0268, 0.0228, 0.0187, 0.0146, 0.0105, 0.035, 0.0309, 0.0268, 0.0228, 0.0187, 0.0146, 0.0105, 0.035, 0.0309, 0.0268, 0.0228, 0.0187, 0.0146, 0.0105, 0.035, 0.0309, 0.0268, 0.0228, 0.0187, 0.0146, 0.0105, 0.035, 0.0309, 0.0268, 0.0228, 0.0187, 0.0146, 0.0105, 0.035, 0.0309, 0.0268, 0.0228, 0.0187, 0.0146, 0.0105, 0.035, 0.0309, 0.0268, 0.0228, 0.0187, 0.0146, 0.0105, 0.035, 0.0309, 0.0268, 0.0228, 0.0187, 0.0146, 0.0105, 0.035, 0.0309, 0.0268, 0.0228, 0.0187, 0.0146, 0.0105] (
            interpolation = "vertex"
        )
        rel material:binding = </World/Looks/mtlx_hair_bare>
    }

    def BasisCurves "Roughness" (prepend apiSchemas = ["MaterialBindingAPI"])
    {
        uniform token type = "cubic"
        uniform token basis = "bezier"
        int[] curveVertexCounts = [7, 7, 7, 7, 7, 7, 7, 7, 7, 7, 7, 7, 7, 7, 7, 7, 7, 7, 7, 7, 7, 7, 7, 7, 7, 7, 7, 7, 7, 7, 7, 7, 7, 7, 7, 7, 7, 7, 7, 7, 7, 7, 7, 7, 7, 7, 7, 7]
        point3f[] points = [(-2.9427, 0, -0.1587), (-2.955, 0.4533, -0.1735), (-2.9919, 0.8592, -0.2178), (-3.0532, 1.1754, -0.2917), (-3.1392, 1.3688, -0.3952), (-3.2497, 1.4192, -0.5283), (-3.3848, 1.3214, -0.6909), (-2.702, 0, 0.1498), (-2.7051, 0.4405, 0.1341), (-2.7142, 0.835, 0.087), (-2.7295, 1.1422, 0.0085), (-2.7509, 1.3302, -0.1014), (-2.7783, 1.3792, -0.2428), (-2.8119, 1.2841, -0.4155), (-2.8321, 0, 0.1054), (-2.8174, 0.4412, 0.0943), (-2.7733, 0.8364, 0.0609), (-2.6999, 1.1441, 0.0052), (-2.5971, 1.3324, -0.0727), (-2.4649, 1.3814, -0.173), (-2.3033, 1.2862, -0.2955), (-2.6571, 0, 0.0589), (-2.6742, 0.5105, 0.0541), (-2.7253, 0.9676, 0.0397), (-2.8104, 1.3236, 0.0156), (-2.9296, 1.5414, -0.018), (-3.0829, 1.5982, -0.0612), (-3.2702, 1.488, -0.1141), (-2.935, 0, 0.1711), (-2.9166, 0.53, 0.1781), (-2.8616, 1.0047, 0.1992), (-2.7698, 1.3744, 0.2343), (-2.6414, 1.6005, 0.2835), (-2.4763, 1.6594, 0.3467), (-2.2744, 1.545, 0.424), (-2.7164, 0, 0.007), (-2.7186, 0.4229, 0.0224), (-2.7252, 0.8016, 0.0686), (-2.7362, 1.0966, 0.1456), (-2.7517, 1.277, 0.2535), (-2.7715, 1.3241, 0.3921), (-2.7957, 1.2328, 0.5616), (-2.6496, 0, 0.1483), (-2.6636, 0.4465, 0.1307), (-2.7057, 0.8463, 0.0777), (-2.7759, 1.1577, -0.0106), (-2.8741, 1.3482, -0.1342), (-3.0003, 1.3978, -0.2932), (-3.1546, 1.3014, -0.4874), (-2.8481, 0, -0.1022), (-2.8273, 0.5056, -0.0968), (-2.765, 0.9584, -0.0804), (-2.6611, 1.311, -0.0531), (-2.5156, 1.5268, -0.0149), (-2.3286, 1.583, 0.0343), (-2.1001, 1.4738, 0.0943), (-2.6133, 0, 0.1006), (-2.6279, 0.5218, 0.0999), (-2.6719, 0.989, 0.0979), (-2.7451, 1.353, 0.0944), (-2.8477, 1.5756, 0.0895), (-2.9796, 1.6336, 0.0832), (-3.1408, 1.521, 0.0756), (-2.9505, 0, 0.1348), (-2.9471, 0.518, 0.112), (-2.937, 0.9819, 0.0436), (-2.9201, 1.3433, -0.0704), (-2.8964, 1.5643, -0.2299), (-2.866, 1.6219, -0.4351), (-2.8289, 1.5101, -0.6859), (-2.7843, 0, 0.2364), (-2.7818, 0.477, 0.2224), (-2.7741, 0.9042, 0.1805), (-2.7613, 1.237, 0.1106), (-2.7434, 1.4405, 0.0128), (-2.7204, 1.4936, -0.1129), (-2.6923, 1.3906, -0.2666), (-2.682, 0, -0.1827), (-2.6869, 0.4389, -0.1694), (-2.7015, 0.832, -0.1296), (-2.726, 1.1382, -0.0633), (-2.7603, 1.3255, 0.0295), (-2.8043, 1.3743, 0.1489), (-2.8581, 1.2795, 0.2947), (-2.9844, 0, -0.1089), (-2.9942, 0.455, -0.1299), (-3.0237, 0.8626, -0.1929), (-3.0727, 1.18, -0.2979), (-3.1413, 1.3741, -0.445), (-3.2295, 1.4247, -0.634), (-3.3374, 1.3265, -0.865), (-2.7772, 0, -0.0053), (-2.7898, 0.4581, 0.0078), (-2.8273, 0.8684, 0.047), (-2.89, 1.1879, 0.1125), (-2.9777, 1.3834, 0.2041), (-3.0905, 1.4343, 0.3219), (-3.2284, 1.3354, 0.4658), (-2.7947, 0, -0.0018), (-2.8181, 0.4338, 0.0012), (-2.8882, 0.8223, 0.0101), (-3.005, 1.1249, 0.0249), (-3.1685, 1.31, 0.0457), (-3.3787, 1.3582, 0.0725), (-3.6357, 1.2646, 0.1051), (-2.9653, 0, 0.1157), (-2.9821, 0.4227, 0.1151), (-3.0323, 0.8012, 0.1133), (-3.1161, 1.096, 0.1103), (-3.2334, 1.2764, 0.106), (-3.3841, 1.3234, 0.1005), (-3.5684, 1.2321, 0.0938), (-2.9396, 0, 0.035), (-2.9212, 0.4991, 0.0218), (-2.866, 0.9461, -0.0177), (-2.7739, 1.2942, -0.0836), (-2.645, 1.5072, -0.1759), (-2.4792, 1.5627, -0.2945), (-2.2766, 1.455, -0.4394), (-3.0082, 0, 0.1241), (-3.0117, 0.4828, 0.1014), (-3.0221, 0.9152, 0.0335), (-3.0395, 1.252, -0.0797), (-3.0639, 1.4579, -0.2381), (-3.0952, 1.5116, -0.4419), (-3.1334, 1.4074, -0.6909), (-2.7699, 0, 0.221), (-2.7818, 0.4446, 0.232), (-2.8175, 0.8427, 0.2651), (-2.8771, 1.1528, 0.3203), (-2.9604, 1.3424, 0.3976), (-3.0676, 1.3918, 0.4969), (-3.1986, 1.2959, 0.6184), (-2.89, 0, -0.0736), (-2.8915, 0.5304, -0.0521), (-2.8959, 1.0054, 0.0125), (-2.9033, 1.3754, 0.12), (-2.9136, 1.6016, 0.2706), (-2.9269, 1.6606, 0.4642), (-2.9432, 1.5461, 0.7008), (-2.8621, 0, 0.0197), (-2.8776, 0.4832, 0.031), (-2.9238, 0.916, 0.065), (-3.0009, 1.253, 0.1218), (-3.1088, 1.4592, 0.2012), (-3.2475, 1.5129, 0.3033), (-3.417, 1.4086, 0.4281), (-2.8556, 0, 0.2328), (-2.8633, 0.4878, 0.2134), (-2.8862, 0.9246, 0.1551), (-2.9245, 1.2648, 0.058), (-2.9781, 1.4729, -0.0779), (-3.047, 1.5271, -0.2527), (-3.1312, 1.4218, -0.4664), (-2.7874, 0, 0.1084), (-2.7981, 0.5077, 0.1202), (-2.8302, 0.9625, 0.1558), (-2.8836, 1.3166, 0.215), (-2.9585, 1.5332, 0.2978), (-3.0547, 1.5897, 0.4044), (-3.1723, 1.4801, 0.5346), (-2.5648, 0, -0.0763), (-2.5795, 0.4382, -0.068), (-2.6235, 0.8306, -0.0433), (-2.6969, 1.1363, -0.002), (-2.7997, 1.3232, 0.0558), (-2.9318, 1.372, 0.1301), (-3.0933, 1.2774, 0.2209), (-2.8539, 0, -0.1451), (-2.8316, 0.4824, -0.1555), (-2.765, 0.9145, -0.1864), (-2.6538, 1.251, -0.238), (-2.4982, 1.4568, -0.3103), (-2.2982, 1.5104, -0.4031), (-2.0537, 1.4063, -0.5166), (-2.9326, 0, 0.1213), (-2.9505, 0.4196, 0.138), (-3.0043, 0.7954, 0.1881), (-3.094, 1.0881, 0.2717), (-3.2196, 1.2671, 0.3886), (-3.3811, 1.3138, 0.5391), (-3.5784, 1.2232, 0.7229), (-2.8042, 0, -0.1815), (-2.7918, 0.5096, -0.1942), (-2.7546, 0.9659, -0.2322), (-2.6926, 1.3213, -0.2957), (-2.6059, 1.5387, -0.3845), (-2.4944, 1.5954, -0.4987), (-2.3581, 1.4854, -0.6382), (-2.787, 0, -0.1955), (-2.801, 0.4473, -0.1821), (-2.8432, 0.8479, -0.1422), (-2.9134, 1.1599, -0.0756), (-3.0118, 1.3507, 0.0176), (-3.1382, 1.4005, 0.1375), (-3.2928, 1.3039, 0.284), (-2.981, 0, 0.1611), (-2.9861, 0.427, 0.1753), (-3.0014, 0.8093, 0.218), (-3.0269, 1.1072, 0.2892), (-3.0626, 1.2893, 0.3889), (-3.1085, 1.3368, 0.517), (-3.1646, 1.2446, 0.6737), (-2.6569, 0, 0.0614), (-2.6456, 0.47, 0.0478), (-2.6117, 0.8909, 0.0071), (-2.5551, 1.2188, -0.0609), (-2.4759, 1.4193, -0.156), (-2.374, 1.4716, -0.2784), (-2.2495, 1.3701, -0.4279), (-2.6219, 0, 0.0332), (-2.6082, 0.4976, 0.0233), (-2.5671, 0.9433, -0.0064), (-2.4986, 1.2904, -0.056), (-2.4027, 1.5027, -0.1253), (-2.2794, 1.5581, -0.2145), (-2.1287, 1.4506, -0.3235), (-2.7646, 0, -0.0248), (-2.7777, 0.4664, -0.0175), (-2.8168, 0.8842, 0.0043), (-2.882, 1.2095, 0.0407), (-2.9732, 1.4085, 0.0916), (-3.0905, 1.4604, 0.157), (-3.2339, 1.3597, 0.237), (-2.6744, 0, 0.1577), (-2.655, 0.5177, 0.1528), (-2.5966, 0.9813, 0.1383), (-2.4993, 1.3424, 0.1141), (-2.363, 1.5633, 0.0802), (-2.1878, 1.6209, 0.0367), (-1.9737, 1.5091, -0.0165), (-2.6948, 0, -0.1129), (-2.6925, 0.5236, -0.089), (-2.6857, 0.9925, -0.0175), (-2.6744, 1.3578, 0.1017), (-2.6586, 1.5812, 0.2686), (-2.6382, 1.6394, 0.4831), (-2.6133, 1.5263, 0.7453), (-2.9248, 0, 0.0009), (-2.9092, 0.4911, 0.0005), (-2.8624, 0.9309, -0.0006), (-2.7843, 1.2735, -0.0024), (-2.675, 1.483, -0.0049), (-2.5345, 1.5376, -0.0082), (-2.3627, 1.4316, -0.0121), (-2.6157, 0, -0.0885), (-2.5943, 0.4807, -0.0976), (-2.5301, 0.9112, -0.1246), (-2.423, 1.2465, -0.1697), (-2.2731, 1.4516, -0.2329), (-2.0804, 1.5051, -0.3141), (-1.8449, 1.4013, -0.4133), (-2.843, 0, 0.151), (-2.8505, 0.5072, 0.1362), (-2.873, 0.9614, 0.0917), (-2.9104, 1.3151, 0.0176), (-2.9629, 1.5315, -0.0862), (-3.0303, 1.5879, -0.2196), (-3.1127, 1.4784, -0.3827), (-2.8589, 0, 0.1949), (-2.8673, 0.467, 0.1823), (-2.8925, 0.8852, 0.1445), (-2.9345, 1.2109, 0.0814), (-2.9932, 1.4101, -0.0069), (-3.0687, 1.4621, -0.1204), (-3.161, 1.3613, -0.2592), (-3.0423, 0, 0.0475), (-3.0308, 0.4592, 0.0611), (-2.9963, 0.8704, 0.1017), (-2.9388, 1.1906, 0.1695), (-2.8583, 1.3865, 0.2644), (-2.7548, 1.4376, 0.3864), (-2.6283, 1.3385, 0.5356), (-3.0264, 0, -0.0837), (-3.0144, 0.5326, -0.0976), (-2.9787, 1.0095, -0.1394), (-2.9191, 1.381, -0.2089), (-2.8357, 1.6082, -0.3062), (-2.7284, 1.6674, -0.4313), (-2.5973, 1.5525, -0.5843), (-2.5963, 0, 0.0444), (-2.5952, 0.5363, 0.0227), (-2.592, 1.0165, -0.0424), (-2.5867, 1.3905, -0.1509), (-2.5792, 1.6193, -0.3028), (-2.5696, 1.679, -0.498), (-2.5579, 1.5632, -0.7367), (-2.8445, 0, -0.1626), (-2.8449, 0.4636, -0.178), (-2.846, 0.8788, -0.2241), (-2.8478, 1.2021, -0.3011), (-2.8503, 1.3999, -0.4088), (-2.8536, 1.4515, -0.5474), (-2.8576, 1.3514, -0.7167), (-2.8367, 0, -0.2244), (-2.8193, 0.4289, -0.2224), (-2.7671, 0.8129, -0.2162), (-2.68, 1.1121, -0.2059), (-2.5582, 1.295, -0.1915), (-2.4016, 1.3427, -0.173), (-2.2101, 1.2502, -0.1504), (-2.8508, 0, -0.1485), (-2.8518, 0.4669, -0.1288), (-2.8546, 0.8851, -0.0699), (-2.8593, 1.2108, 0.0284), (-2.8659, 1.41, 0.1659), (-2.8743, 1.4619, 0.3427), (-2.8847, 1.3611, 0.5588), (-2.9525, 0, -0.1243), (-2.9542, 0.5059, -0.1094), (-2.9592, 0.959, -0.0648), (-2.9677, 1.3119, 0.0095), (-2.9796, 1.5278, 0.1135), (-2.9948, 1.5841, 0.2473), (-3.0134, 1.4748, 0.4107), (-2.735, 0, -0.1555), (-2.7472, 0.5305, -0.1488), (-2.7839, 1.0056, -0.1288), (-2.8451, 1.3757, -0.0955), (-2.9307, 1.602, -0.0489), (-3.0407, 1.661, 0.011), (-3.1753, 1.5465, 0.0843), (-2.824, 0, -0.1207), (-2.8261, 0.4831, -0.0974), (-2.8324, 0.9158, -0.0274), (-2.8428, 1.2528, 0.0892), (-2.8573, 1.4589, 0.2525), (-2.876, 1.5126, 0.4624), (-2.8989, 1.4083, 0.7189), (-2.9405, 0, -0.1826), (-2.9502, 0.487, -0.1989), (-2.9791, 0.9232, -0.2478), (-3.0273, 1.2629, -0.3293), (-3.0947, 1.4707, -0.4435), (-3.1814, 1.5249, -0.5902), (-3.2874, 1.4197, -0.7696)]
        float[] widths = [0.035, 0.0309, 0.0268, 0.0228, 0.0187, 0.0146, 0.0105, 0.035, 0.0309, 0.0268, 0.0228, 0.0187, 0.0146, 0.0105, 0.035, 0.0309, 0.0268, 0.0228, 0.0187, 0.0146, 0.0105, 0.035, 0.0309, 0.0268, 0.0228, 0.0187, 0.0146, 0.0105, 0.035, 0.0309, 0.0268, 0.0228, 0.0187, 0.0146, 0.0105, 0.035, 0.0309, 0.0268, 0.0228, 0.0187, 0.0146, 0.0105, 0.035, 0.0309, 0.0268, 0.0228, 0.0187, 0.0146, 0.0105, 0.035, 0.0309, 0.0268, 0.0228, 0.0187, 0.0146, 0.0105, 0.035, 0.0309, 0.0268, 0.0228, 0.0187, 0.0146, 0.0105, 0.035, 0.0309, 0.0268, 0.0228, 0.0187, 0.0146, 0.0105, 0.035, 0.0309, 0.0268, 0.0228, 0.0187, 0.0146, 0.0105, 0.035, 0.0309, 0.0268, 0.0228, 0.0187, 0.0146, 0.0105, 0.035, 0.0309, 0.0268, 0.0228, 0.0187, 0.0146, 0.0105, 0.035, 0.0309, 0.0268, 0.0228, 0.0187, 0.0146, 0.0105, 0.035, 0.0309, 0.0268, 0.0228, 0.0187, 0.0146, 0.0105, 0.035, 0.0309, 0.0268, 0.0228, 0.0187, 0.0146, 0.0105, 0.035, 0.0309, 0.0268, 0.0228, 0.0187, 0.0146, 0.0105, 0.035, 0.0309, 0.0268, 0.0228, 0.0187, 0.0146, 0.0105, 0.035, 0.0309, 0.0268, 0.0228, 0.0187, 0.0146, 0.0105, 0.035, 0.0309, 0.0268, 0.0228, 0.0187, 0.0146, 0.0105, 0.035, 0.0309, 0.0268, 0.0228, 0.0187, 0.0146, 0.0105, 0.035, 0.0309, 0.0268, 0.0228, 0.0187, 0.0146, 0.0105, 0.035, 0.0309, 0.0268, 0.0228, 0.0187, 0.0146, 0.0105, 0.035, 0.0309, 0.0268, 0.0228, 0.0187, 0.0146, 0.0105, 0.035, 0.0309, 0.0268, 0.0228, 0.0187, 0.0146, 0.0105, 0.035, 0.0309, 0.0268, 0.0228, 0.0187, 0.0146, 0.0105, 0.035, 0.0309, 0.0268, 0.0228, 0.0187, 0.0146, 0.0105, 0.035, 0.0309, 0.0268, 0.0228, 0.0187, 0.0146, 0.0105, 0.035, 0.0309, 0.0268, 0.0228, 0.0187, 0.0146, 0.0105, 0.035, 0.0309, 0.0268, 0.0228, 0.0187, 0.0146, 0.0105, 0.035, 0.0309, 0.0268, 0.0228, 0.0187, 0.0146, 0.0105, 0.035, 0.0309, 0.0268, 0.0228, 0.0187, 0.0146, 0.0105, 0.035, 0.0309, 0.0268, 0.0228, 0.0187, 0.0146, 0.0105, 0.035, 0.0309, 0.0268, 0.0228, 0.0187, 0.0146, 0.0105, 0.035, 0.0309, 0.0268, 0.0228, 0.0187, 0.0146, 0.0105, 0.035, 0.0309, 0.0268, 0.0228, 0.0187, 0.0146, 0.0105, 0.035, 0.0309, 0.0268, 0.0228, 0.0187, 0.0146, 0.0105, 0.035, 0.0309, 0.0268, 0.0228, 0.0187, 0.0146, 0.0105, 0.035, 0.0309, 0.0268, 0.0228, 0.0187, 0.0146, 0.0105, 0.035, 0.0309, 0.0268, 0.0228, 0.0187, 0.0146, 0.0105, 0.035, 0.0309, 0.0268, 0.0228, 0.0187, 0.0146, 0.0105, 0.035, 0.0309, 0.0268, 0.0228, 0.0187, 0.0146, 0.0105, 0.035, 0.0309, 0.0268, 0.0228, 0.0187, 0.0146, 0.0105, 0.035, 0.0309, 0.0268, 0.0228, 0.0187, 0.0146, 0.0105, 0.035, 0.0309, 0.0268, 0.0228, 0.0187, 0.0146, 0.0105, 0.035, 0.0309, 0.0268, 0.0228, 0.0187, 0.0146, 0.0105, 0.035, 0.0309, 0.0268, 0.0228, 0.0187, 0.0146, 0.0105, 0.035, 0.0309, 0.0268, 0.0228, 0.0187, 0.0146, 0.0105] (
            interpolation = "vertex"
        )
        rel material:binding = </World/Looks/mtlx_hair_roughness>
    }

    def BasisCurves "Color" (prepend apiSchemas = ["MaterialBindingAPI"])
    {
        uniform token type = "cubic"
        uniform token basis = "bezier"
        int[] curveVertexCounts = [7, 7, 7, 7, 7, 7, 7, 7, 7, 7, 7, 7, 7, 7, 7, 7, 7, 7, 7, 7, 7, 7, 7, 7, 7, 7, 7, 7, 7, 7, 7, 7, 7, 7, 7, 7, 7, 7, 7, 7, 7, 7, 7, 7, 7, 7, 7, 7]
        point3f[] points = [(-1.3698, 0, 0.0963), (-1.3862, 0.5344, 0.0782), (-1.4354, 1.0129, 0.0238), (-1.5173, 1.3856, -0.0669), (-1.632, 1.6136, -0.1939), (-1.7794, 1.673, -0.3571), (-1.9597, 1.5577, -0.5566), (-1.3516, 0, 0.1359), (-1.331, 0.4811, 0.1319), (-1.2694, 0.912, 0.1198), (-1.1667, 1.2476, 0.0996), (-1.0229, 1.4529, 0.0714), (-0.8381, 1.5064, 0.035), (-0.6121, 1.4026, -0.0093), (-1.3307, 0, -0.1078), (-1.307, 0.437, -0.1067), (-1.2357, 0.8284, -0.1032), (-1.117, 1.1333, -0.0974), (-0.9508, 1.3197, -0.0894), (-0.7371, 1.3683, -0.079), (-0.4759, 1.274, -0.0663), (-1.4351, 0, 0.092), (-1.4156, 0.4405, 0.0851), (-1.3573, 0.835, 0.0645), (-1.2601, 1.1422, 0.0301), (-1.124, 1.3301, -0.018), (-0.949, 1.3791, -0.0799), (-0.7352, 1.284, -0.1556), (-1.1615, 0, -0.0393), (-1.1548, 0.5211, -0.0537), (-1.1348, 0.9878, -0.097), (-1.1014, 1.3513, -0.1692), (-1.0546, 1.5736, -0.2704), (-0.9945, 1.6316, -0.4003), (-0.921, 1.5191, -0.5592), (-1.5301, 0, -0.1548), (-1.5467, 0.5034, -0.1693), (-1.5963, 0.9543, -0.213), (-1.6791, 1.3054, -0.2858), (-1.795, 1.5202, -0.3877), (-1.9441, 1.5762, -0.5187), (-2.1262, 1.4675, -0.6788), (-1.3644, 0, -0.0995), (-1.3397, 0.4877, -0.1005), (-1.2656, 0.9244, -0.1032), (-1.1423, 1.2645, -0.1078), (-0.9695, 1.4726, -0.1142), (-0.7474, 1.5268, -0.1225), (-0.476, 1.4216, -0.1326), (-1.3153, 0, -0.1773), (-1.3248, 0.5009, -0.1977), (-1.3533, 0.9495, -0.2586), (-1.4009, 1.2989, -0.3602), (-1.4675, 1.5126, -0.5024), (-1.5531, 1.5683, -0.6852), (-1.6577, 1.4601, -0.9087), (-1.5242, 0, -0.1767), (-1.5461, 0.4927, -0.1886), (-1.6116, 0.9339, -0.2246), (-1.7209, 1.2776, -0.2845), (-1.8738, 1.4878, -0.3684), (-2.0705, 1.5426, -0.4762), (-2.3109, 1.4362, -0.608), (-1.3609, 0, -0.0005), (-1.3561, 0.4267, -0.0151), (-1.3417, 0.8087, -0.059), (-1.3177, 1.1063, -0.1321), (-1.2841, 1.2884, -0.2346), (-1.2409, 1.3358, -0.3662), (-1.1881, 1.2437, -0.5272), (-1.4221, 0, -0.2347), (-1.4069, 0.4995, -0.2174), (-1.3613, 0.9469, -0.1653), (-1.2853, 1.2953, -0.0785), (-1.179, 1.5084, 0.043), (-1.0422, 1.564, 0.1992), (-0.875, 1.4561, 0.3902), (-1.4266, 0, -0.1378), (-1.4369, 0.4739, -0.1227), (-1.4678, 0.8983, -0.0772), (-1.5193, 1.2288, -0.0015), (-1.5914, 1.431, 0.1046), (-1.6841, 1.4837, 0.241), (-1.7974, 1.3814, 0.4076), (-1.2579, 0, 0.0588), (-1.2405, 0.4366, 0.0734), (-1.1883, 0.8275, 0.1172), (-1.1013, 1.132, 0.1903), (-0.9796, 1.3183, 0.2925), (-0.823, 1.3668, 0.424), (-0.6317, 1.2726, 0.5847), (-1.2651, 0, -0.0211), (-1.2486, 0.4677, -0.0077), (-1.1989, 0.8866, 0.0325), (-1.1162, 1.2128, 0.0995), (-1.0004, 1.4123, 0.1933), (-0.8514, 1.4643, 0.314), (-0.6694, 1.3634, 0.4614), (-1.3946, 0, -0.1796), (-1.3805, 0.4818, -0.1714), (-1.338, 0.9134, -0.147), (-1.2671, 1.2494, -0.1062), (-1.1679, 1.455, -0.0492), (-1.0404, 1.5086, 0.0242), (-0.8845, 1.4046, 0.1138), (-1.5796, 0, -0.1684), (-1.5649, 0.4682, -0.1548), (-1.5208, 0.8875, -0.114), (-1.4472, 1.2141, -0.0459), (-1.3443, 1.4139, 0.0494), (-1.2119, 1.4659, 0.172), (-1.0502, 1.3648, 0.3217), (-1.4708, 0, 0.1507), (-1.4618, 0.4288, 0.1712), (-1.4345, 0.8129, 0.2326), (-1.3892, 1.112, 0.335), (-1.3257, 1.2949, 0.4784), (-1.2441, 1.3426, 0.6628), (-1.1443, 1.2501, 0.8881), (-1.4163, 0, 0.1095), (-1.4163, 0.4633, 0.0855), (-1.4164, 0.8783, 0.0133), (-1.4166, 1.2014, -0.107), (-1.4169, 1.3991, -0.2754), (-1.4173, 1.4506, -0.492), (-1.4177, 1.3506, -0.7567), (-1.3313, 0, 0.141), (-1.3282, 0.4536, 0.1214), (-1.3189, 0.8598, 0.0623), (-1.3033, 1.1762, -0.0362), (-1.2816, 1.3697, -0.174), (-1.2537, 1.4201, -0.3512), (-1.2195, 1.3222, -0.5678), (-1.3501, 0, 0.2321), (-1.366, 0.481, 0.2287), (-1.4134, 0.9117, 0.2183), (-1.4925, 1.2472, 0.2009), (-1.6033, 1.4524, 0.1766), (-1.7457, 1.5059, 0.1454), (-1.9198, 1.4021, 0.1072), (-1.2594, 0, 0.0246), (-1.2353, 0.5015, 0.026), (-1.1631, 0.9507, 0.0301), (-1.0428, 1.3005, 0.0371), (-0.8744, 1.5145, 0.0468), (-0.6579, 1.5703, 0.0594), (-0.3933, 1.462, 0.0747), (-1.3597, 0, 0.0138), (-1.3512, 0.4732, -0.0009), (-1.3257, 0.8969, -0.0449), (-1.2833, 1.2269, -0.1181), (-1.2238, 1.4288, -0.2207), (-1.1474, 1.4814, -0.3526), (-1.054, 1.3793, -0.5137), (-1.439, 0, -0.1735), (-1.4324, 0.5248, -0.1495), (-1.4125, 0.9947, -0.0776), (-1.3792, 1.3607, 0.0423), (-1.3327, 1.5846, 0.21), (-1.2728, 1.6429, 0.4257), (-1.1997, 1.5297, 0.6894), (-1.5888, 0, 0.0884), (-1.5909, 0.5042, 0.1071), (-1.5971, 0.9558, 0.1633), (-1.6075, 1.3075, 0.257), (-1.622, 1.5226, 0.3882), (-1.6407, 1.5787, 0.5568), (-1.6635, 1.4698, 0.7629), (-1.3304, 0, -0.1346), (-1.3308, 0.5108, -0.1204), (-1.332, 0.9683, -0.0778), (-1.3341, 1.3246, -0.0068), (-1.3371, 1.5426, 0.0926), (-1.3408, 1.5994, 0.2203), (-1.3454, 1.4891, 0.3765), (-1.3011, 0, -0.0848), (-1.2808, 0.4887, -0.0757), (-1.2199, 0.9263, -0.0485), (-1.1184, 1.2671, -0.0033), (-0.9764, 1.4756, 0.0601), (-0.7937, 1.53, 0.1416), (-0.5705, 1.4245, 0.2413), (-1.6081, 0, -0.1109), (-1.6207, 0.513, -0.1212), (-1.6584, 0.9724, -0.1521), (-1.7214, 1.3302, -0.2035), (-1.8096, 1.5491, -0.2755), (-1.923, 1.6061, -0.3681), (-2.0616, 1.4954, -0.4813), (-1.645, 0, 0.0022), (-1.6555, 0.4438, -0.0174), (-1.687, 0.8412, -0.0759), (-1.7395, 1.1507, -0.1735), (-1.8129, 1.34, -0.3102), (-1.9074, 1.3894, -0.4858), (-2.0228, 1.2936, -0.7005), (-1.2462, 0, 0.1512), (-1.2289, 0.5042, 0.1387), (-1.177, 0.9558, 0.1013), (-1.0905, 1.3075, 0.039), (-0.9694, 1.5227, -0.0482), (-0.8138, 1.5787, -0.1604), (-0.6235, 1.4699, -0.2975), (-1.6008, 0, 0.0451), (-1.596, 0.5259, 0.0286), (-1.5814, 0.9969, -0.021), (-1.557, 1.3637, -0.1035), (-1.523, 1.5881, -0.2192), (-1.4792, 1.6465, -0.3678), (-1.4257, 1.533, -0.5495), (-1.3283, 0, 0.2354), (-1.3347, 0.5338, 0.2226), (-1.3539, 1.0118, 0.1842), (-1.3859, 1.3841, 0.1202), (-1.4306, 1.6118, 0.0306), (-1.4882, 1.6712, -0.0846), (-1.5585, 1.5559, -0.2253), (-1.2473, 0, -0.0043), (-1.259, 0.4429, -0.0193), (-1.2941, 0.8396, -0.0642), (-1.3526, 1.1486, -0.1389), (-1.4345, 1.3375, -0.2436), (-1.5398, 1.3868, -0.3783), (-1.6686, 1.2912, -0.5428), (-1.5867, 0, 0.0047), (-1.6054, 0.4691, -0.0084), (-1.6617, 0.8893, -0.0477), (-1.7555, 1.2165, -0.1132), (-1.8867, 1.4167, -0.2049), (-2.0555, 1.4688, -0.3228), (-2.2618, 1.3676, -0.467), (-1.5008, 0, -0.1721), (-1.5173, 0.4692, -0.1825), (-1.567, 0.8895, -0.2137), (-1.6499, 1.2168, -0.2657), (-1.7658, 1.417, -0.3385), (-1.915, 1.4691, -0.4322), (-2.0972, 1.3678, -0.5466), (-1.4952, 0, -0.1817), (-1.4756, 0.519, -0.1731), (-1.4171, 0.9838, -0.1474), (-1.3195, 1.3458, -0.1045), (-1.1829, 1.5673, -0.0445), (-1.0073, 1.625, 0.0327), (-0.7927, 1.5129, 0.127), (-1.4221, 0, 0.1138), (-1.445, 0.4392, 0.1206), (-1.5135, 0.8324, 0.141), (-1.6277, 1.1388, 0.175), (-1.7875, 1.3261, 0.2225), (-1.9931, 1.3749, 0.2836), (-2.2443, 1.2801, 0.3583), (-1.3288, 0, 0.032), (-1.3366, 0.5293, 0.0163), (-1.36, 1.0034, -0.0311), (-1.3989, 1.3726, -0.11), (-1.4533, 1.5984, -0.2205), (-1.5234, 1.6573, -0.3626), (-1.609, 1.543, -0.5363), (-1.5218, 0, 0.0237), (-1.5146, 0.4855, 0.0371), (-1.493, 0.9203, 0.0771), (-1.4569, 1.259, 0.1439), (-1.4063, 1.4662, 0.2373), (-1.3414, 1.5202, 0.3574), (-1.2619, 1.4154, 0.5042), (-1.247, 0, 0.1888), (-1.2293, 0.4845, 0.1818), (-1.176, 0.9184, 0.1609), (-1.0872, 1.2563, 0.126), (-0.9629, 1.463, 0.0772), (-0.803, 1.5169, 0.0145), (-0.6077, 1.4123, -0.0622), (-1.4808, 0, 0.1924), (-1.475, 0.4969, 0.1684), (-1.4574, 0.942, 0.0963), (-1.4282, 1.2886, -0.0238), (-1.3873, 1.5006, -0.1919), (-1.3348, 1.5559, -0.4081), (-1.2705, 1.4486, -0.6723), (-1.5261, 0, -0.0996), (-1.5439, 0.4979, -0.0851), (-1.5973, 0.9437, -0.0414), (-1.6864, 1.291, 0.0315), (-1.811, 1.5034, 0.1335), (-1.9713, 1.5588, 0.2646), (-2.1672, 1.4513, 0.4248), (-1.5615, 0, -0.0265), (-1.5374, 0.53, -0.0306), (-1.4653, 1.0047, -0.0428), (-1.3451, 1.3744, -0.0631), (-1.1769, 1.6005, -0.0916), (-0.9606, 1.6594, -0.1282), (-0.6962, 1.545, -0.1729), (-1.5923, 0, -0.1045), (-1.58, 0.4849, -0.0957), (-1.543, 0.9192, -0.0695), (-1.4814, 1.2575, -0.0258), (-1.3951, 1.4644, 0.0355), (-1.2841, 1.5183, 0.1142), (-1.1485, 1.4136, 0.2104), (-1.4002, 0, -0.1823), (-1.3871, 0.5201, -0.1992), (-1.3478, 0.9858, -0.2498), (-1.2823, 1.3486, -0.3343), (-1.1905, 1.5705, -0.4525), (-1.0726, 1.6283, -0.6044), (-0.9284, 1.516, -0.7901), (-1.5197, 0, 0.1165), (-1.5332, 0.5149, 0.1104), (-1.5738, 0.976, 0.0922), (-1.6414, 1.3351, 0.0619), (-1.736, 1.5547, 0.0194), (-1.8577, 1.612, -0.0352), (-2.0064, 1.5009, -0.1019), (-1.5062, 0, -0.145), (-1.529, 0.4597, -0.1523), (-1.5975, 0.8714, -0.1742), (-1.7117, 1.1921, -0.2107), (-1.8715, 1.3883, -0.2619), (-2.0769, 1.4394, -0.3276), (-2.3281, 1.3401, -0.4079), (-1.502, 0, 0.2101), (-1.5243, 0.4727, 0.2081), (-1.5913, 0.8961, 0.2023), (-1.7029, 1.2258, 0.1925), (-1.8592, 1.4275, 0.1788), (-2.0602, 1.4801, 0.1611), (-2.3059, 1.378, 0.1396), (-1.6021, 0, -0.0654), (-1.5895, 0.537, -0.0517), (-1.5518, 1.0178, -0.0106), (-1.4891, 1.3924, 0.0581), (-1.4011, 1.6215, 0.1541), (-1.2881, 1.6812, 0.2776), (-1.15, 1.5653, 0.4286)]
        float[] widths = [0.035, 0.0309, 0.0268, 0.0228, 0.0187, 0.0146, 0.0105, 0.035, 0.0309, 0.0268, 0.0228, 0.0187, 0.0146, 0.0105, 0.035, 0.0309, 0.0268, 0.0228, 0.0187, 0.0146, 0.0105, 0.035, 0.0309, 0.0268, 0.0228, 0.0187, 0.0146, 0.0105, 0.035, 0.0309, 0.0268, 0.0228, 0.0187, 0.0146, 0.0105, 0.035, 0.0309, 0.0268, 0.0228, 0.0187, 0.0146, 0.0105, 0.035, 0.0309, 0.0268, 0.0228, 0.0187, 0.0146, 0.0105, 0.035, 0.0309, 0.0268, 0.0228, 0.0187, 0.0146, 0.0105, 0.035, 0.0309, 0.0268, 0.0228, 0.0187, 0.0146, 0.0105, 0.035, 0.0309, 0.0268, 0.0228, 0.0187, 0.0146, 0.0105, 0.035, 0.0309, 0.0268, 0.0228, 0.0187, 0.0146, 0.0105, 0.035, 0.0309, 0.0268, 0.0228, 0.0187, 0.0146, 0.0105, 0.035, 0.0309, 0.0268, 0.0228, 0.0187, 0.0146, 0.0105, 0.035, 0.0309, 0.0268, 0.0228, 0.0187, 0.0146, 0.0105, 0.035, 0.0309, 0.0268, 0.0228, 0.0187, 0.0146, 0.0105, 0.035, 0.0309, 0.0268, 0.0228, 0.0187, 0.0146, 0.0105, 0.035, 0.0309, 0.0268, 0.0228, 0.0187, 0.0146, 0.0105, 0.035, 0.0309, 0.0268, 0.0228, 0.0187, 0.0146, 0.0105, 0.035, 0.0309, 0.0268, 0.0228, 0.0187, 0.0146, 0.0105, 0.035, 0.0309, 0.0268, 0.0228, 0.0187, 0.0146, 0.0105, 0.035, 0.0309, 0.0268, 0.0228, 0.0187, 0.0146, 0.0105, 0.035, 0.0309, 0.0268, 0.0228, 0.0187, 0.0146, 0.0105, 0.035, 0.0309, 0.0268, 0.0228, 0.0187, 0.0146, 0.0105, 0.035, 0.0309, 0.0268, 0.0228, 0.0187, 0.0146, 0.0105, 0.035, 0.0309, 0.0268, 0.0228, 0.0187, 0.0146, 0.0105, 0.035, 0.0309, 0.0268, 0.0228, 0.0187, 0.0146, 0.0105, 0.035, 0.0309, 0.0268, 0.0228, 0.0187, 0.0146, 0.0105, 0.035, 0.0309, 0.0268, 0.0228, 0.0187, 0.0146, 0.0105, 0.035, 0.0309, 0.0268, 0.0228, 0.0187, 0.0146, 0.0105, 0.035, 0.0309, 0.0268, 0.0228, 0.0187, 0.0146, 0.0105, 0.035, 0.0309, 0.0268, 0.0228, 0.0187, 0.0146, 0.0105, 0.035, 0.0309, 0.0268, 0.0228, 0.0187, 0.0146, 0.0105, 0.035, 0.0309, 0.0268, 0.0228, 0.0187, 0.0146, 0.0105, 0.035, 0.0309, 0.0268, 0.0228, 0.0187, 0.0146, 0.0105, 0.035, 0.0309, 0.0268, 0.0228, 0.0187, 0.0146, 0.0105, 0.035, 0.0309, 0.0268, 0.0228, 0.0187, 0.0146, 0.0105, 0.035, 0.0309, 0.0268, 0.0228, 0.0187, 0.0146, 0.0105, 0.035, 0.0309, 0.0268, 0.0228, 0.0187, 0.0146, 0.0105, 0.035, 0.0309, 0.0268, 0.0228, 0.0187, 0.0146, 0.0105, 0.035, 0.0309, 0.0268, 0.0228, 0.0187, 0.0146, 0.0105, 0.035, 0.0309, 0.0268, 0.0228, 0.0187, 0.0146, 0.0105, 0.035, 0.0309, 0.0268, 0.0228, 0.0187, 0.0146, 0.0105, 0.035, 0.0309, 0.0268, 0.0228, 0.0187, 0.0146, 0.0105, 0.035, 0.0309, 0.0268, 0.0228, 0.0187, 0.0146, 0.0105, 0.035, 0.0309, 0.0268, 0.0228, 0.0187, 0.0146, 0.0105, 0.035, 0.0309, 0.0268, 0.0228, 0.0187, 0.0146, 0.0105, 0.035, 0.0309, 0.0268, 0.0228, 0.0187, 0.0146, 0.0105, 0.035, 0.0309, 0.0268, 0.0228, 0.0187, 0.0146, 0.0105] (
            interpolation = "vertex"
        )
        rel material:binding = </World/Looks/mtlx_hair_color>
    }

    def BasisCurves "Melanin" (prepend apiSchemas = ["MaterialBindingAPI"])
    {
        uniform token type = "cubic"
        uniform token basis = "bezier"
        int[] curveVertexCounts = [7, 7, 7, 7, 7, 7, 7, 7, 7, 7, 7, 7, 7, 7, 7, 7, 7, 7, 7, 7, 7, 7, 7, 7, 7, 7, 7, 7, 7, 7, 7, 7, 7, 7, 7, 7, 7, 7, 7, 7, 7, 7, 7, 7, 7, 7, 7, 7]
        point3f[] points = [(0.082, 0, 0.2303), (0.0961, 0.4315, 0.2228), (0.1385, 0.818, 0.2001), (0.2092, 1.119, 0.1624), (0.3081, 1.3031, 0.1095), (0.4353, 1.351, 0.0415), (0.5908, 1.2579, -0.0415), (-0.1785, 0, -0.0209), (-0.1639, 0.5157, -0.0372), (-0.1199, 0.9776, -0.0862), (-0.0467, 1.3374, -0.1678), (0.0558, 1.5574, -0.282), (0.1877, 1.6147, -0.4288), (0.3488, 1.5034, -0.6083), (-0.0497, 0, -0.0268), (-0.0345, 0.4278, -0.0217), (0.011, 0.8108, -0.0062), (0.0868, 1.1092, 0.0195), (0.1929, 1.2917, 0.0556), (0.3294, 1.3392, 0.102), (0.4961, 1.2469, 0.1587), (0.1836, 0, -0.0193), (0.1651, 0.419, -0.0108), (0.1098, 0.7943, 0.0148), (0.0176, 1.0866, 0.0574), (-0.1114, 1.2654, 0.117), (-0.2773, 1.312, 0.1936), (-0.4802, 1.2215, 0.2873), (0.0191, 0, 0.0409), (0.0051, 0.4781, 0.0584), (-0.0369, 0.9063, 0.1108), (-0.1069, 1.2398, 0.1982), (-0.2049, 1.4438, 0.3206), (-0.3309, 1.497, 0.478), (-0.4848, 1.3938, 0.6704), (-0.0345, 0, -0.0708), (-0.0485, 0.477, -0.0779), (-0.0905, 0.9042, -0.0992), (-0.1604, 1.2369, -0.1346), (-0.2584, 1.4404, -0.1843), (-0.3843, 1.4934, -0.2481), (-0.5383, 1.3905, -0.3261), (-0.1512, 0, -0.1195), (-0.1409, 0.4328, -0.1009), (-0.11, 0.8204, -0.045), (-0.0586, 1.1223, 0.0482), (0.0134, 1.307, 0.1787), (0.106, 1.3551, 0.3464), (0.2191, 1.2617, 0.5514), (0.1629, 0, -0.0751), (0.1836, 0.5292, -0.0728), (0.2459, 1.0032, -0.0658), (0.3497, 1.3723, -0.0541), (0.495, 1.5981, -0.0378), (0.6819, 1.657, -0.0168), (0.9102, 1.5427, 0.0089), (-0.1624, 0, 0.1639), (-0.1654, 0.4908, 0.1457), (-0.1743, 0.9304, 0.0912), (-0.1892, 1.2728, 0.0003), (-0.21, 1.4822, -0.1269), (-0.2368, 1.5368, -0.2905), (-0.2695, 1.4308, -0.4904), (0.246, 0, 0.0387), (0.2602, 0.4484, 0.0488), (0.3025, 0.8499, 0.0794), (0.3731, 1.1627, 0.1303), (0.4719, 1.354, 0.2016), (0.599, 1.4038, 0.2933), (0.7543, 1.307, 0.4053), (-0.0009, 0, -0.2346), (-0.0072, 0.4255, -0.2188), (-0.0263, 0.8065, -0.1712), (-0.058, 1.1032, -0.092), (-0.1025, 1.2848, 0.019), (-0.1596, 1.3321, 0.1616), (-0.2295, 1.2402, 0.336), (-0.1753, 0, -0.0076), (-0.1599, 0.4354, -0.0146), (-0.1134, 0.8253, -0.0357), (-0.0361, 1.129, -0.0709), (0.0723, 1.3148, -0.1202), (0.2115, 1.3632, -0.1836), (0.3818, 1.2692, -0.261), (-0.2182, 0, -0.0753), (-0.2295, 0.5067, -0.0607), (-0.2632, 0.9605, -0.0167), (-0.3195, 1.3139, 0.0565), (-0.3982, 1.5301, 0.159), (-0.4995, 1.5865, 0.2908), (-0.6232, 1.4771, 0.4519), (0.1655, 0, 0.1326), (0.1462, 0.5385, 0.1426), (0.0882, 1.0207, 0.1725), (-0.0083, 1.3964, 0.2225), (-0.1435, 1.6261, 0.2924), (-0.3174, 1.686, 0.3823), (-0.5298, 1.5697, 0.4922), (-0.2173, 0, 0.0073), (-0.2057, 0.5082, -0.0049), (-0.1708, 0.9632, -0.0414), (-0.1126, 1.3177, -0.1024), (-0.0311, 1.5345, -0.1877), (0.0736, 1.591, -0.2974), (0.2017, 1.4813, -0.4314), (0.1644, 0, -0.0636), (0.1519, 0.4362, -0.0785), (0.1146, 0.8268, -0.1233), (0.0523, 1.131, -0.198), (-0.0348, 1.3171, -0.3025), (-0.1469, 1.3656, -0.4368), (-0.2838, 1.2715, -0.6011), (-0.0537, 0, -0.0386), (-0.077, 0.4392, -0.0468), (-0.1472, 0.8325, -0.0713), (-0.264, 1.1388, -0.1122), (-0.4276, 1.3262, -0.1693), (-0.6379, 1.375, -0.2429), (-0.895, 1.2802, -0.3327), (0.0962, 0, -0.2209), (0.1075, 0.528, -0.2309), (0.1415, 1.0009, -0.2609), (0.1981, 1.3692, -0.3108), (0.2773, 1.5945, -0.3807), (0.3791, 1.6532, -0.4706), (0.5036, 1.5392, -0.5804), (-0.2316, 0, -0.0599), (-0.2076, 0.4668, -0.063), (-0.1354, 0.8849, -0.0724), (-0.0151, 1.2105, -0.088), (0.1532, 1.4097, -0.1099), (0.3697, 1.4616, -0.1381), (0.6343, 1.3608, -0.1725), (0.0239, 0, 0.0825), (0.0025, 0.4336, 0.0949), (-0.0618, 0.822, 0.132), (-0.169, 1.1245, 0.1939), (-0.3191, 1.3095, 0.2805), (-0.5121, 1.3577, 0.3918), (-0.7479, 1.2641, 0.5279), (-0.1293, 0, -0.075), (-0.1165, 0.4443, -0.0816), (-0.0782, 0.8423, -0.1013), (-0.0142, 1.1522, -0.1342), (0.0753, 1.3418, -0.1802), (0.1904, 1.3912, -0.2393), (0.3311, 1.2953, -0.3116), (-0.1483, 0, -0.1961), (-0.128, 0.4387, -0.1841), (-0.0671, 0.8315, -0.1481), (0.0343, 1.1374, -0.0882), (0.1764, 1.3246, -0.0043), (0.359, 1.3734, 0.1036), (0.5822, 1.2787, 0.2354), (0.1108, 0, 0.2084), (0.0938, 0.5151, 0.2161), (0.0429, 0.9763, 0.2392), (-0.0421, 1.3356, 0.2777), (-0.161, 1.5553, 0.3316), (-0.314, 1.6126, 0.401), (-0.5009, 1.5014, 0.4857), (-0.1298, 0, 0.1628), (-0.1226, 0.5085, 0.1825), (-0.101, 0.9639, 0.2417), (-0.065, 1.3186, 0.3403), (-0.0146, 1.5356, 0.4783), (0.0501, 1.5921, 0.6558), (0.1293, 1.4824, 0.8727), (-0.0197, 0, 0.0121), (-0.0224, 0.4641, -0.0028), (-0.0303, 0.8797, -0.0474), (-0.0435, 1.2034, -0.1218), (-0.062, 1.4014, -0.226), (-0.0858, 1.453, -0.3599), (-0.1148, 1.3528, -0.5236), (0.0878, 0, -0.2018), (0.1011, 0.5341, -0.194), (0.141, 1.0125, -0.1707), (0.2076, 1.3851, -0.1319), (0.3008, 1.6129, -0.0775), (0.4206, 1.6723, -0.0075), (0.567, 1.557, 0.078), (0.1107, 0, -0.1032), (0.1306, 0.429, -0.092), (0.1901, 0.8132, -0.0584), (0.2894, 1.1124, -0.0024), (0.4283, 1.2955, 0.0761), (0.607, 1.3432, 0.1769), (0.8253, 1.2506, 0.3002), (-0.0983, 0, 0.1452), (-0.1126, 0.4442, 0.143), (-0.1555, 0.8419, 0.1362), (-0.227, 1.1518, 0.1249), (-0.3271, 1.3413, 0.1092), (-0.4559, 1.3906, 0.0889), (-0.6132, 1.2948, 0.0641), (-0.0813, 0, -0.1926), (-0.0778, 0.5051, -0.2066), (-0.067, 0.9575, -0.2488), (-0.0491, 1.3098, -0.3191), (-0.024, 1.5254, -0.4175), (0.0083, 1.5815, -0.544), (0.0477, 1.4725, -0.6986), (0.1481, 0, 0.0024), (0.1362, 0.4826, -0.0058), (0.1006, 0.9148, -0.0304), (0.0413, 1.2514, -0.0714), (-0.0417, 1.4573, -0.1288), (-0.1484, 1.5109, -0.2025), (-0.2789, 1.4068, -0.2927), (0.0091, 0, 0.2049), (0.0291, 0.4308, 0.2043), (0.0889, 0.8166, 0.2026), (0.1886, 1.1171, 0.1998), (0.3282, 1.3009, 0.1959), (0.5077, 1.3488, 0.1908), (0.7271, 1.2558, 0.1847), (-0.2203, 0, 0.0373), (-0.2086, 0.5357, 0.0473), (-0.1735, 1.0155, 0.0776), (-0.1151, 1.3892, 0.128), (-0.0333, 1.6178, 0.1986), (0.0718, 1.6773, 0.2893), (0.2004, 1.5617, 0.4002), (-0.0264, 0, -0.1032), (-0.0299, 0.4948, -0.086), (-0.0406, 0.9378, -0.0345), (-0.0583, 1.2829, 0.0515), (-0.0832, 1.494, 0.1717), (-0.1152, 1.549, 0.3264), (-0.1542, 1.4422, 0.5153), (0.1806, 0, -0.1506), (0.1863, 0.4904, -0.1304), (0.2035, 0.9296, -0.0697), (0.232, 1.2717, 0.0315), (0.2719, 1.4809, 0.1732), (0.3232, 1.5355, 0.3553), (0.386, 1.4296, 0.5779), (0.144, 0, -0.197), (0.1346, 0.4446, -0.181), (0.1062, 0.8427, -0.133), (0.0589, 1.1528, -0.0529), (-0.0072, 1.3425, 0.0592), (-0.0923, 1.3919, 0.2034), (-0.1963, 1.296, 0.3796), (-0.0521, 0, -0.1505), (-0.0482, 0.4187, -0.1657), (-0.0365, 0.7937, -0.2113), (-0.017, 1.0858, -0.2874), (0.0104, 1.2644, -0.3939), (0.0455, 1.311, -0.5309), (0.0885, 1.2206, -0.6982), (-0.1647, 0, 0.1711), (-0.1804, 0.5098, 0.1561), (-0.2273, 0.9664, 0.1112), (-0.3054, 1.322, 0.0362), (-0.4149, 1.5395, -0.0687), (-0.5556, 1.5962, -0.2036), (-0.7275, 1.4862, -0.3685), (-0.0834, 0, -0.0831), (-0.079, 0.537, -0.0983), (-0.0658, 1.0179, -0.1438), (-0.0438, 1.3924, -0.2195), (-0.013, 1.6215, -0.3256), (0.0266, 1.6813, -0.462), (0.075, 1.5653, -0.6287), (-0.1092, 0, 0.0333), (-0.0911, 0.4893, 0.0198), (-0.0366, 0.9274, -0.0206), (0.0541, 1.2687, -0.0879), (0.1812, 1.4775, -0.1822), (0.3446, 1.5319, -0.3034), (0.5443, 1.4263, -0.4516), (0.0829, 0, -0.2172), (0.066, 0.441, -0.2198), (0.0153, 0.8359, -0.2276), (-0.0691, 1.1434, -0.2405), (-0.1873, 1.3316, -0.2586), (-0.3392, 1.3806, -0.2818), (-0.525, 1.2854, -0.3103), (-0.1834, 0, -0.1367), (-0.2032, 0.4683, -0.1281), (-0.2625, 0.8877, -0.1025), (-0.3614, 1.2143, -0.0598), (-0.4999, 1.4141, 0), (-0.6779, 1.4662, 0.0769), (-0.8954, 1.3651, 0.1709), (0.123, 0, -0.1254), (0.1173, 0.5413, -0.1126), (0.1003, 1.0261, -0.0743), (0.0718, 1.4037, -0.0104), (0.032, 1.6347, 0.0791), (-0.0192, 1.6949, 0.1941), (-0.0818, 1.578, 0.3347), (0.0028, 0, 0.1545), (0.0168, 0.4891, 0.1483), (0.0586, 0.9272, 0.1299), (0.1283, 1.2684, 0.0992), (0.2258, 1.477, 0.0562), (0.3513, 1.5314, 0.001), (0.5046, 1.4258, -0.0666), (0.1551, 0, -0.0093), (0.1596, 0.4828, -0.0242), (0.1731, 0.9151, -0.0689), (0.1956, 1.2518, -0.1433), (0.2271, 1.4578, -0.2476), (0.2676, 1.5115, -0.3816), (0.3171, 1.4073, -0.5454), (0.0743, 0, 0.218), (0.0716, 0.4186, 0.2378), (0.0636, 0.7935, 0.2974), (0.0503, 1.0856, 0.3967), (0.0317, 1.2642, 0.5358), (0.0077, 1.3107, 0.7146), (-0.0216, 1.2203, 0.9331), (-0.0888, 0, 0.1326), (-0.1112, 0.5096, 0.1301), (-0.1781, 0.966, 0.1227), (-0.2896, 1.3215, 0.1104), (-0.4457, 1.5389, 0.0931), (-0.6465, 1.5956, 0.071), (-0.8918, 1.4856, 0.0439), (0.1458, 0, 0.1648), (0.1608, 0.4716, 0.1639), (0.2057, 0.8939, 0.1614), (0.2807, 1.2228, 0.1571), (0.3856, 1.424, 0.1512), (0.5205, 1.4765, 0.1435), (0.6853, 1.3747, 0.1342), (-0.1848, 0, -0.0817), (-0.2024, 0.5321, -0.08), (-0.2551, 1.0086, -0.075), (-0.3431, 1.3797, -0.0665), (-0.4662, 1.6068, -0.0547), (-0.6246, 1.6659, -0.0395), (-0.8181, 1.5511, -0.0208)]
        float[] widths = [0.035, 0.0309, 0.0268, 0.0228, 0.0187, 0.0146, 0.0105, 0.035, 0.0309, 0.0268, 0.0228, 0.0187, 0.0146, 0.0105, 0.035, 0.0309, 0.0268, 0.0228, 0.0187, 0.0146, 0.0105, 0.035, 0.0309, 0.0268, 0.0228, 0.0187, 0.0146, 0.0105, 0.035, 0.0309, 0.0268, 0.0228, 0.0187, 0.0146, 0.0105, 0.035, 0.0309, 0.0268, 0.0228, 0.0187, 0.0146, 0.0105, 0.035, 0.0309, 0.0268, 0.0228, 0.0187, 0.0146, 0.0105, 0.035, 0.0309, 0.0268, 0.0228, 0.0187, 0.0146, 0.0105, 0.035, 0.0309, 0.0268, 0.0228, 0.0187, 0.0146, 0.0105, 0.035, 0.0309, 0.0268, 0.0228, 0.0187, 0.0146, 0.0105, 0.035, 0.0309, 0.0268, 0.0228, 0.0187, 0.0146, 0.0105, 0.035, 0.0309, 0.0268, 0.0228, 0.0187, 0.0146, 0.0105, 0.035, 0.0309, 0.0268, 0.0228, 0.0187, 0.0146, 0.0105, 0.035, 0.0309, 0.0268, 0.0228, 0.0187, 0.0146, 0.0105, 0.035, 0.0309, 0.0268, 0.0228, 0.0187, 0.0146, 0.0105, 0.035, 0.0309, 0.0268, 0.0228, 0.0187, 0.0146, 0.0105, 0.035, 0.0309, 0.0268, 0.0228, 0.0187, 0.0146, 0.0105, 0.035, 0.0309, 0.0268, 0.0228, 0.0187, 0.0146, 0.0105, 0.035, 0.0309, 0.0268, 0.0228, 0.0187, 0.0146, 0.0105, 0.035, 0.0309, 0.0268, 0.0228, 0.0187, 0.0146, 0.0105, 0.035, 0.0309, 0.0268, 0.0228, 0.0187, 0.0146, 0.0105, 0.035, 0.0309, 0.0268, 0.0228, 0.0187, 0.0146, 0.0105, 0.035, 0.0309, 0.0268, 0.0228, 0.0187, 0.0146, 0.0105, 0.035, 0.0309, 0.0268, 0.0228, 0.0187, 0.0146, 0.0105, 0.035, 0.0309, 0.0268, 0.0228, 0.0187, 0.0146, 0.0105, 0.035, 0.0309, 0.0268, 0.0228, 0.0187, 0.0146, 0.0105, 0.035, 0.0309, 0.0268, 0.0228, 0.0187, 0.0146, 0.0105, 0.035, 0.0309, 0.0268, 0.0228, 0.0187, 0.0146, 0.0105, 0.035, 0.0309, 0.0268, 0.0228, 0.0187, 0.0146, 0.0105, 0.035, 0.0309, 0.0268, 0.0228, 0.0187, 0.0146, 0.0105, 0.035, 0.0309, 0.0268, 0.0228, 0.0187, 0.0146, 0.0105, 0.035, 0.0309, 0.0268, 0.0228, 0.0187, 0.0146, 0.0105, 0.035, 0.0309, 0.0268, 0.0228, 0.0187, 0.0146, 0.0105, 0.035, 0.0309, 0.0268, 0.0228, 0.0187, 0.0146, 0.0105, 0.035, 0.0309, 0.0268, 0.0228, 0.0187, 0.0146, 0.0105, 0.035, 0.0309, 0.0268, 0.0228, 0.0187, 0.0146, 0.0105, 0.035, 0.0309, 0.0268, 0.0228, 0.0187, 0.0146, 0.0105, 0.035, 0.0309, 0.0268, 0.0228, 0.0187, 0.0146, 0.0105, 0.035, 0.0309, 0.0268, 0.0228, 0.0187, 0.0146, 0.0105, 0.035, 0.0309, 0.0268, 0.0228, 0.0187, 0.0146, 0.0105, 0.035, 0.0309, 0.0268, 0.0228, 0.0187, 0.0146, 0.0105, 0.035, 0.0309, 0.0268, 0.0228, 0.0187, 0.0146, 0.0105, 0.035, 0.0309, 0.0268, 0.0228, 0.0187, 0.0146, 0.0105, 0.035, 0.0309, 0.0268, 0.0228, 0.0187, 0.0146, 0.0105, 0.035, 0.0309, 0.0268, 0.0228, 0.0187, 0.0146, 0.0105, 0.035, 0.0309, 0.0268, 0.0228, 0.0187, 0.0146, 0.0105, 0.035, 0.0309, 0.0268, 0.0228, 0.0187, 0.0146, 0.0105, 0.035, 0.0309, 0.0268, 0.0228, 0.0187, 0.0146, 0.0105] (
            interpolation = "vertex"
        )
        rel material:binding = </World/Looks/mtlx_hair_melanin>
    }

    def BasisCurves "Mix" (prepend apiSchemas = ["MaterialBindingAPI"])
    {
        uniform token type = "cubic"
        uniform token basis = "bezier"
        int[] curveVertexCounts = [7, 7, 7, 7, 7, 7, 7, 7, 7, 7, 7, 7, 7, 7, 7, 7, 7, 7, 7, 7, 7, 7, 7, 7, 7, 7, 7, 7, 7, 7, 7, 7, 7, 7, 7, 7, 7, 7, 7, 7, 7, 7, 7, 7, 7, 7, 7, 7]
        point3f[] points = [(1.5917, 0, 0.1186), (1.6044, 0.5284, 0.1101), (1.6422, 1.0016, 0.0845), (1.7053, 1.3702, 0.042), (1.7937, 1.5957, -0.0176), (1.9073, 1.6544, -0.0942), (2.0462, 1.5404, -0.1879), (1.4861, 0, 0.2282), (1.4632, 0.5159, 0.2228), (1.3945, 0.9779, 0.2067), (1.2801, 1.3378, 0.1799), (1.1199, 1.5579, 0.1423), (0.914, 1.6152, 0.0941), (0.6623, 1.5039, 0.035), (1.3299, 0, 0.1026), (1.3097, 0.5035, 0.115), (1.2493, 0.9544, 0.1523), (1.1485, 1.3056, 0.2144), (1.0074, 1.5204, 0.3015), (0.8261, 1.5764, 0.4133), (0.6044, 1.4677, 0.5501), (1.2787, 0, 0.1095), (1.2795, 0.4312, 0.0943), (1.2819, 0.8173, 0.0489), (1.2858, 1.1181, -0.0269), (1.2913, 1.302, -0.1329), (1.2984, 1.35, -0.2693), (1.3071, 1.2569, -0.4359), (1.2906, 0, 0.0686), (1.2892, 0.4194, 0.0891), (1.2852, 0.7949, 0.1506), (1.2783, 1.0875, 0.2531), (1.2688, 1.2664, 0.3967), (1.2565, 1.313, 0.5812), (1.2415, 1.2225, 0.8068), (1.417, 0, -0.2382), (1.4182, 0.5058, -0.2585), (1.4218, 0.9588, -0.3191), (1.4278, 1.3116, -0.4201), (1.4363, 1.5274, -0.5615), (1.4471, 1.5836, -0.7433), (1.4604, 1.4744, -0.9655), (1.3908, 0, -0.0352), (1.4059, 0.4828, -0.023), (1.451, 0.9151, 0.0137), (1.5262, 1.2518, 0.0748), (1.6314, 1.4578, 0.1603), (1.7667, 1.5115, 0.2703), (1.9321, 1.4073, 0.4047), (1.4629, 0, -0.2256), (1.4546, 0.4235, -0.2025), (1.4295, 0.8028, -0.1333), (1.3878, 1.0982, -0.0179), (1.3293, 1.2789, 0.1436), (1.2542, 1.326, 0.3512), (1.1623, 1.2346, 0.605), (1.3724, 0, 0.1654), (1.3812, 0.4567, 0.1778), (1.4078, 0.8656, 0.2151), (1.452, 1.1842, 0.2771), (1.514, 1.379, 0.3641), (1.5937, 1.4298, 0.4759), (1.6911, 1.3312, 0.6125), (1.3771, 0, -0.1548), (1.3899, 0.4811, -0.1444), (1.4283, 0.912, -0.113), (1.4922, 1.2476, -0.0607), (1.5817, 1.4529, 0.0126), (1.6968, 1.5064, 0.1068), (1.8374, 1.4025, 0.2219), (1.1661, 0, -0.0776), (1.16, 0.4888, -0.0951), (1.1417, 0.9266, -0.1475), (1.1112, 1.2675, -0.2348), (1.0686, 1.4761, -0.3571), (1.0137, 1.5305, -0.5143), (0.9467, 1.4249, -0.7065), (1.4495, 0, -0.0621), (1.4625, 0.4382, -0.0801), (1.5016, 0.8306, -0.134), (1.5668, 1.1363, -0.2239), (1.658, 1.3232, -0.3497), (1.7753, 1.372, -0.5115), (1.9187, 1.2774, -0.7092), (1.2934, 0, -0.0128), (1.2712, 0.4985, -0.0107), (1.2044, 0.9449, -0.0044), (1.0931, 1.2926, 0.0062), (0.9373, 1.5053, 0.0209), (0.737, 1.5607, 0.0399), (0.4921, 1.4531, 0.0631), (1.387, 0, -0.1775), (1.389, 0.512, -0.161), (1.395, 0.9706, -0.1117), (1.4049, 1.3277, -0.0294), (1.4188, 1.5462, 0.0858), (1.4367, 1.6031, 0.2339), (1.4586, 1.4926, 0.4149), (1.1723, 0, 0.0625), (1.1841, 0.4965, 0.0821), (1.2193, 0.9411, 0.1407), (1.2781, 1.2874, 0.2384), (1.3604, 1.4992, 0.3752), (1.4662, 1.5544, 0.551), (1.5956, 1.4472, 0.766), (1.4182, 0, -0.1477), (1.4194, 0.471, -0.1672), (1.4231, 0.8929, -0.2258), (1.4291, 1.2214, -0.3235), (1.4376, 1.4224, -0.4602), (1.4484, 1.4748, -0.636), (1.4617, 1.3731, -0.8508), (1.5919, 0, 0.1079), (1.5921, 0.4867, 0.1249), (1.5926, 0.9226, 0.1759), (1.5934, 1.2621, 0.261), (1.5946, 1.4698, 0.38), (1.5961, 1.5239, 0.533), (1.5979, 1.4188, 0.7201), (1.5466, 0, -0.1667), (1.5343, 0.4245, -0.1567), (1.4974, 0.8047, -0.1267), (1.4358, 1.1009, -0.0766), (1.3496, 1.282, -0.0065), (1.2388, 1.3292, 0.0835), (1.1033, 1.2375, 0.1937), (1.5508, 0, 0.0114), (1.5363, 0.4449, -0.001), (1.4927, 0.8433, -0.0379), (1.4202, 1.1536, -0.0996), (1.3187, 1.3434, -0.1858), (1.1881, 1.3929, -0.2967), (1.0285, 1.2969, -0.4323), (1.2917, 0, 0.2147), (1.2878, 0.5421, 0.1906), (1.2764, 1.0276, 0.1182), (1.2572, 1.4058, -0.0024), (1.2304, 1.6371, -0.1712), (1.196, 1.6974, -0.3883), (1.1539, 1.5803, -0.6536), (1.4046, 0, -0.1111), (1.3872, 0.5258, -0.1209), (1.3351, 0.9966, -0.1502), (1.2482, 1.3633, -0.199), (1.1266, 1.5876, -0.2674), (0.9702, 1.6461, -0.3552), (0.7791, 1.5326, -0.4627), (1.3897, 0, -0.1394), (1.3923, 0.4472, -0.1186), (1.4, 0.8476, -0.0563), (1.4129, 1.1595, 0.0476), (1.4309, 1.3503, 0.193), (1.454, 1.4, 0.3799), (1.4823, 1.3035, 0.6084), (1.4286, 0, -0.2211), (1.4452, 0.4913, -0.2178), (1.4949, 0.9312, -0.2079), (1.5777, 1.2739, -0.1915), (1.6936, 1.4835, -0.1685), (1.8427, 1.5382, -0.1389), (2.025, 1.4321, -0.1028), (1.5038, 0, 0.0501), (1.5248, 0.5231, 0.0472), (1.5881, 0.9916, 0.0386), (1.6934, 1.3565, 0.0242), (1.8409, 1.5797, 0.0041), (2.0305, 1.6379, -0.0218), (2.2623, 1.5249, -0.0534), (1.2877, 0, 0.1999), (1.2937, 0.4641, 0.1799), (1.3114, 0.8798, 0.12), (1.3409, 1.2035, 0.02), (1.3823, 1.4015, -0.1199), (1.4355, 1.4531, -0.2998), (1.5004, 1.3529, -0.5197), (1.4143, 0, 0.15), (1.4321, 0.4395, 0.1481), (1.4856, 0.8331, 0.1424), (1.5747, 1.1397, 0.1329), (1.6995, 1.3272, 0.1195), (1.8599, 1.376, 0.1024), (2.056, 1.2812, 0.0815), (1.5918, 0, -0.0385), (1.5863, 0.4581, -0.0552), (1.57, 0.8683, -0.1053), (1.5427, 1.1878, -0.1888), (1.5045, 1.3832, -0.3058), (1.4554, 1.4342, -0.4561), (1.3955, 1.3353, -0.6399), (1.5499, 0, 0.1916), (1.5532, 0.4979, 0.2149), (1.5633, 0.9437, 0.2846), (1.58, 1.291, 0.4008), (1.6035, 1.5034, 0.5634), (1.6336, 1.5588, 0.7726), (1.6705, 1.4513, 1.0282), (1.4943, 0, -0.1492), (1.5051, 0.4669, -0.1302), (1.5376, 0.885, -0.0732), (1.5916, 1.2107, 0.0218), (1.6673, 1.4099, 0.1549), (1.7645, 1.4618, 0.3259), (1.8834, 1.361, 0.535), (1.54, 0, 0.1891), (1.5592, 0.4485, 0.176), (1.6166, 0.8501, 0.1366), (1.7122, 1.1629, 0.0709), (1.8461, 1.3543, -0.021), (2.0183, 1.4041, -0.1391), (2.2287, 1.3073, -0.2835), (1.3953, 0, -0.2331), (1.4111, 0.5289, -0.2324), (1.4584, 1.0025, -0.2301), (1.5373, 1.3714, -0.2263), (1.6477, 1.597, -0.2211), (1.7897, 1.6558, -0.2143), (1.9632, 1.5417, -0.2059), (1.4689, 0, 0.16), (1.4541, 0.4493, 0.1687), (1.4098, 0.8516, 0.195), (1.3358, 1.165, 0.2387), (1.2323, 1.3567, 0.3), (1.0992, 1.4067, 0.3787), (0.9365, 1.3097, 0.4749), (1.3498, 0, 0.0399), (1.3668, 0.4625, 0.0445), (1.4177, 0.8768, 0.0582), (1.5025, 1.1994, 0.0812), (1.6213, 1.3967, 0.1133), (1.774, 1.4482, 0.1546), (1.9606, 1.3483, 0.2051), (1.395, 0, 0.1036), (1.3905, 0.5318, 0.1167), (1.3769, 1.008, 0.1562), (1.3543, 1.3789, 0.2219), (1.3227, 1.6058, 0.314), (1.2819, 1.6649, 0.4323), (1.2322, 1.5501, 0.577), (1.4798, 0, -0.0385), (1.4821, 0.4955, -0.0555), (1.4892, 0.9392, -0.1064), (1.501, 1.2849, -0.1913), (1.5176, 1.4963, -0.3101), (1.5388, 1.5514, -0.4629), (1.5648, 1.4444, -0.6496), (1.3385, 0, -0.22), (1.3344, 0.4934, -0.2044), (1.3219, 0.9353, -0.1575), (1.3012, 1.2795, -0.0793), (1.2722, 1.49, 0.0302), (1.2349, 1.5449, 0.1709), (1.1893, 1.4383, 0.3429), (1.458, 0, -0.2275), (1.4421, 0.5275, -0.2116), (1.3947, 0.9998, -0.1639), (1.3156, 1.3677, -0.0843), (1.2049, 1.5928, 0.0271), (1.0626, 1.6514, 0.1703), (0.8886, 1.5376, 0.3453), (1.5192, 0, 0.0651), (1.5341, 0.4201, 0.0578), (1.5787, 0.7962, 0.036), (1.653, 1.0892, -0.0003), (1.7571, 1.2685, -0.0512), (1.8908, 1.3152, -0.1167), (2.0543, 1.2245, -0.1967), (1.62, 0, -0.1138), (1.6036, 0.4586, -0.1151), (1.5542, 0.8692, -0.119), (1.472, 1.1891, -0.1256), (1.3569, 1.3848, -0.1348), (1.2089, 1.4357, -0.1467), (1.0279, 1.3368, -0.1612), (1.428, 0, -0.1849), (1.4519, 0.4663, -0.179), (1.5234, 0.8838, -0.1611), (1.6427, 1.209, -0.1313), (1.8097, 1.408, -0.0896), (2.0244, 1.4598, -0.036), (2.2868, 1.3592, 0.0296), (1.2199, 0, -0.1317), (1.2079, 0.5274, -0.1186), (1.1718, 0.9997, -0.0792), (1.1117, 1.3676, -0.0135), (1.0275, 1.5926, 0.0785), (0.9192, 1.6513, 0.1968), (0.7869, 1.5374, 0.3414), (1.4243, 0, -0.0872), (1.4308, 0.5058, -0.1067), (1.4505, 0.9587, -0.1652), (1.4834, 1.3115, -0.2627), (1.5293, 1.5273, -0.3992), (1.5884, 1.5835, -0.5747), (1.6607, 1.4743, -0.7892), (1.4726, 0, -0.1067), (1.4969, 0.5053, -0.1095), (1.5697, 0.9579, -0.1176), (1.6911, 1.3104, -0.1312), (1.8611, 1.526, -0.1503), (2.0796, 1.5822, -0.1748), (2.3467, 1.4731, -0.2048), (1.6328, 0, 0.0287), (1.6386, 0.4613, 0.0109), (1.6559, 0.8744, -0.0426), (1.6848, 1.1962, -0.1317), (1.7253, 1.393, -0.2566), (1.7773, 1.4443, -0.4171), (1.8408, 1.3447, -0.6132), (1.3994, 0, 0.099), (1.414, 0.4771, 0.084), (1.4578, 0.9043, 0.0389), (1.5308, 1.237, -0.0363), (1.633, 1.4406, -0.1416), (1.7644, 1.4936, -0.277), (1.9249, 1.3906, -0.4424), (1.453, 0, -0.0859), (1.4639, 0.4552, -0.1066), (1.4965, 0.8628, -0.1687), (1.5508, 1.1803, -0.2722), (1.6269, 1.3745, -0.417), (1.7247, 1.4251, -0.6033), (1.8443, 1.3268, -0.8309), (1.4344, 0, 0.1067), (1.4258, 0.4971, 0.0881), (1.4002, 0.9423, 0.0323), (1.3574, 1.289, -0.0607), (1.2976, 1.5011, -0.1909), (1.2206, 1.5564, -0.3583), (1.1266, 1.4491, -0.5629), (1.4581, 0, 0.007), (1.4539, 0.4493, 0.0226), (1.4413, 0.8517, 0.0693), (1.4203, 1.1651, 0.1471), (1.3909, 1.3568, 0.2561), (1.3532, 1.4067, 0.3963), (1.307, 1.3097, 0.5675)]
        float[] widths = [0.035, 0.0309, 0.0268, 0.0228, 0.0187, 0.0146, 0.0105, 0.035, 0.0309, 0.0268, 0.0228, 0.0187, 0.0146, 0.0105, 0.035, 0.0309, 0.0268, 0.0228, 0.0187, 0.0146, 0.0105, 0.035, 0.0309, 0.0268, 0.0228, 0.0187, 0.0146, 0.0105, 0.035, 0.0309, 0.0268, 0.0228, 0.0187, 0.0146, 0.0105, 0.035, 0.0309, 0.0268, 0.0228, 0.0187, 0.0146, 0.0105, 0.035, 0.0309, 0.0268, 0.0228, 0.0187, 0.0146, 0.0105, 0.035, 0.0309, 0.0268, 0.0228, 0.0187, 0.0146, 0.0105, 0.035, 0.0309, 0.0268, 0.0228, 0.0187, 0.0146, 0.0105, 0.035, 0.0309, 0.0268, 0.0228, 0.0187, 0.0146, 0.0105, 0.035, 0.0309, 0.0268, 0.0228, 0.0187, 0.0146, 0.0105, 0.035, 0.0309, 0.0268, 0.0228, 0.0187, 0.0146, 0.0105, 0.035, 0.0309, 0.0268, 0.0228, 0.0187, 0.0146, 0.0105, 0.035, 0.0309, 0.0268, 0.0228, 0.0187, 0.0146, 0.0105, 0.035, 0.0309, 0.0268, 0.0228, 0.0187, 0.0146, 0.0105, 0.035, 0.0309, 0.0268, 0.0228, 0.0187, 0.0146, 0.0105, 0.035, 0.0309, 0.0268, 0.0228, 0.0187, 0.0146, 0.0105, 0.035, 0.0309, 0.0268, 0.0228, 0.0187, 0.0146, 0.0105, 0.035, 0.0309, 0.0268, 0.0228, 0.0187, 0.0146, 0.0105, 0.035, 0.0309, 0.0268, 0.0228, 0.0187, 0.0146, 0.0105, 0.035, 0.0309, 0.0268, 0.0228, 0.0187, 0.0146, 0.0105, 0.035, 0.0309, 0.0268, 0.0228, 0.0187, 0.0146, 0.0105, 0.035, 0.0309, 0.0268, 0.0228, 0.0187, 0.0146, 0.0105, 0.035, 0.0309, 0.0268, 0.0228, 0.0187, 0.0146, 0.0105, 0.035, 0.0309, 0.0268, 0.0228, 0.0187, 0.0146, 0.0105, 0.035, 0.0309, 0.0268, 0.0228, 0.0187, 0.0146, 0.0105, 0.035, 0.0309, 0.0268, 0.0228, 0.0187, 0.0146, 0.0105, 0.035, 0.0309, 0.0268, 0.0228, 0.0187, 0.0146, 0.0105, 0.035, 0.0309, 0.0268, 0.0228, 0.0187, 0.0146, 0.0105, 0.035, 0.0309, 0.0268, 0.0228, 0.0187, 0.0146, 0.0105, 0.035, 0.0309, 0.0268, 0.0228, 0.0187, 0.0146, 0.0105, 0.035, 0.0309, 0.0268, 0.0228, 0.0187, 0.0146, 0.0105, 0.035, 0.0309, 0.0268, 0.0228, 0.0187, 0.0146, 0.0105, 0.035, 0.0309, 0.0268, 0.0228, 0.0187, 0.0146, 0.0105, 0.035, 0.0309, 0.0268, 0.0228, 0.0187, 0.0146, 0.0105, 0.035, 0.0309, 0.0268, 0.0228, 0.0187, 0.0146, 0.0105, 0.035, 0.0309, 0.0268, 0.0228, 0.0187, 0.0146, 0.0105, 0.035, 0.0309, 0.0268, 0.0228, 0.0187, 0.0146, 0.0105, 0.035, 0.0309, 0.0268, 0.0228, 0.0187, 0.0146, 0.0105, 0.035, 0.0309, 0.0268, 0.0228, 0.0187, 0.0146, 0.0105, 0.035, 0.0309, 0.0268, 0.0228, 0.0187, 0.0146, 0.0105, 0.035, 0.0309, 0.0268, 0.0228, 0.0187, 0.0146, 0.0105, 0.035, 0.0309, 0.0268, 0.0228, 0.0187, 0.0146, 0.0105, 0.035, 0.0309, 0.0268, 0.0228, 0.0187, 0.0146, 0.0105, 0.035, 0.0309, 0.0268, 0.0228, 0.0187, 0.0146, 0.0105, 0.035, 0.0309, 0.0268, 0.0228, 0.0187, 0.0146, 0.0105, 0.035, 0.0309, 0.0268, 0.0228, 0.0187, 0.0146, 0.0105, 0.035, 0.0309, 0.0268, 0.0228, 0.0187, 0.0146, 0.0105] (
            interpolation = "vertex"
        )
        rel material:binding = </World/Looks/mtlx_hair_mix>
    }

    def BasisCurves "Clear" (prepend apiSchemas = ["MaterialBindingAPI"])
    {
        uniform token type = "cubic"
        uniform token basis = "bezier"
        int[] curveVertexCounts = [7, 7, 7, 7, 7, 7, 7, 7, 7, 7, 7, 7, 7, 7, 7, 7, 7, 7, 7, 7, 7, 7, 7, 7, 7, 7, 7, 7, 7, 7, 7, 7, 7, 7, 7, 7, 7, 7, 7, 7, 7, 7, 7, 7, 7, 7, 7, 7]
        point3f[] points = [(2.7104, 0, -0.1007), (2.696, 0.497, -0.101), (2.6526, 0.9421, -0.1017), (2.5803, 1.2887, -0.103), (2.4792, 1.5008, -0.1047), (2.3491, 1.556, -0.107), (2.1901, 1.4488, -0.1097), (2.7933, 0, -0.1208), (2.8138, 0.5212, -0.1178), (2.8753, 0.9879, -0.1089), (2.9777, 1.3514, -0.0941), (3.1212, 1.5738, -0.0733), (3.3057, 1.6317, -0.0466), (3.5311, 1.5192, -0.014), (2.7019, 0, -0.1806), (2.7196, 0.537, -0.1836), (2.7727, 1.0179, -0.1924), (2.8611, 1.3925, -0.2072), (2.985, 1.6216, -0.2279), (3.1441, 1.6813, -0.2545), (3.3387, 1.5654, -0.287), (2.6632, 0, 0.1661), (2.648, 0.4886, 0.1733), (2.6027, 0.9262, 0.1948), (2.5271, 1.267, 0.2308), (2.4212, 1.4755, 0.2811), (2.2851, 1.5298, 0.3458), (2.1188, 1.4243, 0.4249), (2.9473, 0, -0.0353), (2.9342, 0.4337, -0.0178), (2.8949, 0.8222, 0.0348), (2.8294, 1.1247, 0.1224), (2.7377, 1.3098, 0.245), (2.6198, 1.358, 0.4027), (2.4758, 1.2644, 0.5954), (2.7751, 0, 0.0681), (2.795, 0.5081, 0.0663), (2.855, 0.9632, 0.0607), (2.955, 1.3176, 0.0513), (3.095, 1.5344, 0.0383), (3.2749, 1.5909, 0.0215), (3.4949, 1.4812, 0.0009), (2.738, 0, -0.0948), (2.7203, 0.5089, -0.0776), (2.6673, 0.9646, -0.0259), (2.579, 1.3196, 0.0602), (2.4552, 1.5367, 0.1807), (2.2962, 1.5933, 0.3358), (2.1018, 1.4835, 0.5252), (2.6654, 0, 0.1911), (2.6433, 0.4449, 0.1968), (2.5769, 0.8434, 0.2141), (2.4662, 1.1537, 0.243), (2.3112, 1.3435, 0.2834), (2.112, 1.393, 0.3354), (1.8685, 1.297, 0.3989), (2.8057, 0, 0.0111), (2.8231, 0.4882, 0.0178), (2.8751, 0.9255, 0.0379), (2.9618, 1.266, 0.0713), (3.0832, 1.4743, 0.1182), (3.2392, 1.5286, 0.1785), (3.43, 1.4232, 0.2522), (2.6001, 0, 0.0373), (2.61, 0.4165, 0.0245), (2.6395, 0.7895, -0.0138), (2.6888, 1.0801, -0.0777), (2.7578, 1.2578, -0.1671), (2.8464, 1.3041, -0.282), (2.9548, 1.2142, -0.4225), (2.9421, 0, 0.1417), (2.9464, 0.4491, 0.1581), (2.9591, 0.8513, 0.2074), (2.9802, 1.1646, 0.2895), (3.0098, 1.3562, 0.4046), (3.0479, 1.4061, 0.5525), (3.0945, 1.3091, 0.7332), (2.659, 0, 0.1434), (2.646, 0.4154, 0.1223), (2.6069, 0.7875, 0.0591), (2.5418, 1.0773, -0.0463), (2.4507, 1.2545, -0.1939), (2.3335, 1.3007, -0.3836), (2.1903, 1.211, -0.6155), (2.6931, 0, -0.1953), (2.7173, 0.4162, -0.1907), (2.79, 0.7888, -0.1768), (2.9112, 1.0791, -0.1536), (3.0808, 1.2567, -0.1212), (3.2988, 1.3029, -0.0795), (3.5653, 1.2131, -0.0285), (2.8434, 0, 0.1694), (2.8442, 0.5334, 0.1509), (2.8467, 1.011, 0.0955), (2.8508, 1.3831, 0.0031), (2.8566, 1.6107, -0.1263), (2.864, 1.67, -0.2926), (2.8731, 1.5548, -0.4958), (2.7288, 0, 0.1787), (2.7435, 0.537, 0.1764), (2.7877, 1.018, 0.1695), (2.8614, 1.3925, 0.1582), (2.9646, 1.6217, 0.1422), (3.0973, 1.6814, 0.1217), (3.2594, 1.5654, 0.0966), (2.8867, 0, 0.0364), (2.8782, 0.5016, 0.0594), (2.8528, 0.9509, 0.1284), (2.8105, 1.3008, 0.2435), (2.7513, 1.5148, 0.4046), (2.6751, 1.5706, 0.6117), (2.582, 1.4623, 0.8648), (2.956, 0, 0.0998), (2.9702, 0.4371, 0.106), (3.0131, 0.8286, 0.1245), (3.0845, 1.1335, 0.1555), (3.1845, 1.32, 0.1988), (3.313, 1.3686, 0.2545), (3.4701, 1.2742, 0.3226), (2.9262, 0, 0.2149), (2.9319, 0.4856, 0.1974), (2.949, 0.9204, 0.1451), (2.9774, 1.2591, 0.058), (3.0172, 1.4663, -0.064), (3.0683, 1.5203, -0.2209), (3.1309, 1.4155, -0.4127), (2.9331, 0, 0.05), (2.9143, 0.4212, 0.0354), (2.858, 0.7984, -0.0081), (2.7642, 1.0922, -0.0808), (2.6328, 1.2719, -0.1825), (2.464, 1.3187, -0.3132), (2.2576, 1.2278, -0.4731), (2.8261, 0, -0.2301), (2.8442, 0.4921, -0.2294), (2.8988, 0.9327, -0.2271), (2.9896, 1.276, -0.2233), (3.1169, 1.4859, -0.2179), (3.2804, 1.5406, -0.2111), (3.4804, 1.4344, -0.2027), (2.6362, 0, 0.0726), (2.6258, 0.4812, 0.0574), (2.5947, 0.912, 0.0116), (2.5428, 1.2477, -0.0647), (2.4701, 1.4529, -0.1715), (2.3767, 1.5064, -0.3089), (2.2625, 1.4026, -0.4767), (2.9732, 0, 0.0238), (2.9608, 0.465, 0.0363), (2.9234, 0.8814, 0.0738), (2.8611, 1.2058, 0.1362), (2.774, 1.4042, 0.2236), (2.6619, 1.4559, 0.336), (2.5249, 1.3555, 0.4734), (2.7687, 0, 0.0692), (2.7528, 0.4266, 0.0717), (2.7052, 0.8086, 0.0792), (2.6257, 1.1062, 0.0917), (2.5144, 1.2882, 0.1093), (2.3714, 1.3356, 0.1318), (2.1966, 1.2435, 0.1593), (2.7815, 0, 0.1113), (2.7979, 0.4275, 0.1018), (2.8471, 0.8103, 0.0732), (2.929, 1.1085, 0.0257), (3.0437, 1.2909, -0.0408), (3.1911, 1.3384, -0.1263), (3.3713, 1.2461, -0.2309), (2.7266, 0, -0.0112), (2.7426, 0.4699, -0.0204), (2.7905, 0.8907, -0.0481), (2.8704, 1.2184, -0.0943), (2.9823, 1.4189, -0.1589), (3.1261, 1.4711, -0.242), (3.3019, 1.3697, -0.3436), (2.6062, 0, -0.0916), (2.6093, 0.4482, -0.1136), (2.6187, 0.8496, -0.1797), (2.6342, 1.1623, -0.2898), (2.656, 1.3535, -0.444), (2.684, 1.4033, -0.6422), (2.7183, 1.3066, -0.8845), (2.682, 0, -0.0203), (2.6691, 0.4887, -0.0375), (2.6306, 0.9263, -0.089), (2.5664, 1.2671, -0.1748), (2.4764, 1.4756, -0.295), (2.3608, 1.5299, -0.4495), (2.2195, 1.4244, -0.6383), (2.9949, 0, 0.0685), (3.0177, 0.4233, 0.0672), (3.0859, 0.8023, 0.0633), (3.1996, 1.0976, 0.0569), (3.3588, 1.2782, 0.0479), (3.5634, 1.3252, 0.0363), (3.8135, 1.2338, 0.0221), (2.7846, 0, -0.037), (2.808, 0.4422, -0.0323), (2.8782, 0.8382, -0.0179), (2.9952, 1.1466, 0.006), (3.159, 1.3353, 0.0394), (3.3697, 1.3844, 0.0824), (3.6271, 1.289, 0.135), (2.7521, 0, 0.0364), (2.7639, 0.4984, 0.0538), (2.7993, 0.9448, 0.1061), (2.8582, 1.2924, 0.1934), (2.9408, 1.5051, 0.3154), (3.0469, 1.5605, 0.4724), (3.1766, 1.4529, 0.6643), (2.7881, 0, -0.2475), (2.7674, 0.4579, -0.2529), (2.7052, 0.868, -0.2693), (2.6015, 1.1875, -0.2966), (2.4564, 1.3828, -0.3348), (2.2698, 1.4338, -0.3839), (2.0417, 1.3349, -0.4439), (3.0377, 0, 0.0257), (3.0486, 0.4173, 0.0126), (3.0815, 0.791, -0.0265), (3.1362, 1.0821, -0.0918), (3.2128, 1.2601, -0.1833), (3.3114, 1.3065, -0.3008), (3.4318, 1.2164, -0.4445), (2.6878, 0, -0.1462), (2.683, 0.5274, -0.1689), (2.6686, 0.9997, -0.237), (2.6447, 1.3675, -0.3505), (2.6112, 1.5925, -0.5093), (2.5682, 1.6512, -0.7136), (2.5156, 1.5373, -0.9633), (2.6832, 0, -0.1741), (2.6605, 0.4666, -0.1803), (2.5925, 0.8845, -0.1988), (2.4791, 1.2099, -0.2297), (2.3204, 1.409, -0.273), (2.1163, 1.4609, -0.3285), (1.8669, 1.3602, -0.3965), (2.9184, 0, 0.1514), (2.9172, 0.4276, 0.1669), (2.9135, 0.8105, 0.2132), (2.9073, 1.1087, 0.2904), (2.8987, 1.2911, 0.3986), (2.8876, 1.3387, 0.5376), (2.874, 1.2464, 0.7075), (2.825, 0, -0.0685), (2.8363, 0.5349, -0.0525), (2.8701, 1.014, -0.0048), (2.9265, 1.3871, 0.0749), (3.0054, 1.6154, 0.1863), (3.1069, 1.6748, 0.3296), (3.231, 1.5594, 0.5048), (2.5935, 0, 0.0721), (2.5756, 0.5348, 0.0568), (2.522, 1.0137, 0.011), (2.4327, 1.3867, -0.0654), (2.3076, 1.6148, -0.1724), (2.1468, 1.6743, -0.3099), (1.9503, 1.5588, -0.478), (3.0082, 0, 0.135), (3.0184, 0.4834, 0.1248), (3.0489, 0.9164, 0.094), (3.0999, 1.2536, 0.0426), (3.1713, 1.4598, -0.0292), (3.263, 1.5136, -0.1216), (3.3751, 1.4092, -0.2346), (2.5873, 0, 0.0536), (2.5886, 0.4558, 0.0298), (2.5925, 0.8639, -0.0419), (2.599, 1.1818, -0.1613), (2.6081, 1.3763, -0.3285), (2.6198, 1.427, -0.5435), (2.6341, 1.3286, -0.8062), (2.7356, 0, 0.0885), (2.7597, 0.5377, 0.0867), (2.8322, 1.0193, 0.0812), (2.9531, 1.3944, 0.072), (3.1223, 1.6238, 0.0591), (3.3398, 1.6836, 0.0426), (3.6057, 1.5675, 0.0225), (2.6348, 0, 0.1488), (2.6379, 0.4786, 0.1695), (2.6471, 0.9072, 0.2317), (2.6625, 1.241, 0.3353), (2.6841, 1.4452, 0.4804), (2.7119, 1.4984, 0.6669), (2.7458, 1.3951, 0.8948), (2.8259, 0, -0.0025), (2.8137, 0.4532, 0.0073), (2.7773, 0.8591, 0.0367), (2.7166, 1.1753, 0.0858), (2.6315, 1.3687, 0.1545), (2.5222, 1.4191, 0.2429), (2.3885, 1.3212, 0.3508), (2.9519, 0, -0.0277), (2.9571, 0.4358, -0.013), (2.9725, 0.826, 0.031), (2.9983, 1.1299, 0.1044), (3.0344, 1.3159, 0.2072), (3.0808, 1.3643, 0.3394), (3.1374, 1.2702, 0.5009), (2.9427, 0, -0.1751), (2.9271, 0.4473, -0.1721), (2.8804, 0.8478, -0.1628), (2.8025, 1.1598, -0.1475), (2.6934, 1.3507, -0.1259), (2.5532, 1.4004, -0.0983), (2.3818, 1.3039, -0.0645), (2.7224, 0, -0.1011), (2.7001, 0.4773, -0.0996), (2.6331, 0.9048, -0.095), (2.5216, 1.2377, -0.0874), (2.3654, 1.4414, -0.0767), (2.1646, 1.4945, -0.0629), (1.9191, 1.3914, -0.0461), (2.7278, 0, 0.013), (2.7387, 0.5274, 0.0024), (2.7716, 0.9998, -0.0294), (2.8265, 1.3677, -0.0824), (2.9032, 1.5927, -0.1566), (3.0019, 1.6514, -0.252), (3.1225, 1.5375, -0.3686), (2.7464, 0, -0.05), (2.7317, 0.5144, -0.066), (2.6877, 0.975, -0.1141), (2.6144, 1.3338, -0.1941), (2.5117, 1.5533, -0.3063), (2.3796, 1.6105, -0.4504), (2.2182, 1.4995, -0.6266), (2.9847, 0, -0.0276), (2.9896, 0.4489, -0.0416), (3.0042, 0.8508, -0.0833), (3.0286, 1.1639, -0.1528), (3.0628, 1.3554, -0.2502), (3.1067, 1.4053, -0.3754), (3.1604, 1.3084, -0.5285)]
        float[] widths = [0.035, 0.0309, 0.0268, 0.0228, 0.0187, 0.0146, 0.0105, 0.035, 0.0309, 0.0268, 0.0228, 0.0187, 0.0146, 0.0105, 0.035, 0.0309, 0.0268, 0.0228, 0.0187, 0.0146, 0.0105, 0.035, 0.0309, 0.0268, 0.0228, 0.0187, 0.0146, 0.0105, 0.035, 0.0309, 0.0268, 0.0228, 0.0187, 0.0146, 0.0105, 0.035, 0.0309, 0.0268, 0.0228, 0.0187, 0.0146, 0.0105, 0.035, 0.0309, 0.0268, 0.0228, 0.0187, 0.0146, 0.0105, 0.035, 0.0309, 0.0268, 0.0228, 0.0187, 0.0146, 0.0105, 0.035, 0.0309, 0.0268, 0.0228, 0.0187, 0.0146, 0.0105, 0.035, 0.0309, 0.0268, 0.0228, 0.0187, 0.0146, 0.0105, 0.035, 0.0309, 0.0268, 0.0228, 0.0187, 0.0146, 0.0105, 0.035, 0.0309, 0.0268, 0.0228, 0.0187, 0.0146, 0.0105, 0.035, 0.0309, 0.0268, 0.0228, 0.0187, 0.0146, 0.0105, 0.035, 0.0309, 0.0268, 0.0228, 0.0187, 0.0146, 0.0105, 0.035, 0.0309, 0.0268, 0.0228, 0.0187, 0.0146, 0.0105, 0.035, 0.0309, 0.0268, 0.0228, 0.0187, 0.0146, 0.0105, 0.035, 0.0309, 0.0268, 0.0228, 0.0187, 0.0146, 0.0105, 0.035, 0.0309, 0.0268, 0.0228, 0.0187, 0.0146, 0.0105, 0.035, 0.0309, 0.0268, 0.0228, 0.0187, 0.0146, 0.0105, 0.035, 0.0309, 0.0268, 0.0228, 0.0187, 0.0146, 0.0105, 0.035, 0.0309, 0.0268, 0.0228, 0.0187, 0.0146, 0.0105, 0.035, 0.0309, 0.0268, 0.0228, 0.0187, 0.0146, 0.0105, 0.035, 0.0309, 0.0268, 0.0228, 0.0187, 0.0146, 0.0105, 0.035, 0.0309, 0.0268, 0.0228, 0.0187, 0.0146, 0.0105, 0.035, 0.0309, 0.0268, 0.0228, 0.0187, 0.0146, 0.0105, 0.035, 0.0309, 0.0268, 0.0228, 0.0187, 0.0146, 0.0105, 0.035, 0.0309, 0.0268, 0.0228, 0.0187, 0.0146, 0.0105, 0.035, 0.0309, 0.0268, 0.0228, 0.0187, 0.0146, 0.0105, 0.035, 0.0309, 0.0268, 0.0228, 0.0187, 0.0146, 0.0105, 0.035, 0.0309, 0.0268, 0.0228, 0.0187, 0.0146, 0.0105, 0.035, 0.0309, 0.0268, 0.0228, 0.0187, 0.0146, 0.0105, 0.035, 0.0309, 0.0268, 0.0228, 0.0187, 0.0146, 0.0105, 0.035, 0.0309, 0.0268, 0.0228, 0.0187, 0.0146, 0.0105, 0.035, 0.0309, 0.0268, 0.0228, 0.0187, 0.0146, 0.0105, 0.035, 0.0309, 0.0268, 0.0228, 0.0187, 0.0146, 0.0105, 0.035, 0.0309, 0.0268, 0.0228, 0.0187, 0.0146, 0.0105, 0.035, 0.0309, 0.0268, 0.0228, 0.0187, 0.0146, 0.0105, 0.035, 0.0309, 0.0268, 0.0228, 0.0187, 0.0146, 0.0105, 0.035, 0.0309, 0.0268, 0.0228, 0.0187, 0.0146, 0.0105, 0.035, 0.0309, 0.0268, 0.0228, 0.0187, 0.0146, 0.0105, 0.035, 0.0309, 0.0268, 0.0228, 0.0187, 0.0146, 0.0105, 0.035, 0.0309, 0.0268, 0.0228, 0.0187, 0.0146, 0.0105, 0.035, 0.0309, 0.0268, 0.0228, 0.0187, 0.0146, 0.0105, 0.035, 0.0309, 0.0268, 0.0228, 0.0187, 0.0146, 0.0105, 0.035, 0.0309, 0.0268, 0.0228, 0.0187, 0.0146, 0.0105, 0.035, 0.0309, 0.0268, 0.0228, 0.0187, 0.0146, 0.0105, 0.035, 0.0309, 0.0268, 0.0228, 0.0187, 0.0146, 0.0105, 0.035, 0.0309, 0.0268, 0.0228, 0.0187, 0.0146, 0.0105] (
            interpolation = "vertex"
        )
        rel material:binding = </World/Looks/mtlx_hair_clear>
    }

    def BasisCurves "DiffuseTwin" (prepend apiSchemas = ["MaterialBindingAPI"])
    {
        uniform token type = "cubic"
        uniform token basis = "bezier"
        int[] curveVertexCounts = [7, 7, 7, 7, 7, 7, 7, 7, 7, 7, 7, 7, 7, 7, 7, 7, 7, 7, 7, 7, 7, 7, 7, 7, 7, 7, 7, 7, 7, 7, 7, 7, 7, 7, 7, 7, 7, 7, 7, 7, 7, 7, 7, 7, 7, 7, 7, 7]
        point3f[] points = [(4.1723, 0, 0.1649), (4.189, 0.5058, 0.1738), (4.2391, 0.9588, 0.2005), (4.3227, 1.3116, 0.2449), (4.4397, 1.5274, 0.3072), (4.59, 1.5836, 0.3872), (4.7738, 1.4744, 0.485), (4.1089, 0, -0.0016), (4.0861, 0.4551, 0.0085), (4.0176, 0.8627, 0.0388), (3.9035, 1.1802, 0.0892), (3.7437, 1.3743, 0.1599), (3.5383, 1.4249, 0.2506), (3.2872, 1.3267, 0.3616), (4.0486, 0, -0.1501), (4.0695, 0.5022, -0.1463), (4.1323, 0.952, -0.1352), (4.2368, 1.3023, -0.1166), (4.3832, 1.5165, -0.0905), (4.5714, 1.5724, -0.057), (4.8015, 1.464, -0.0161), (4.2878, 0, 0.2206), (4.2716, 0.5011, 0.212), (4.223, 0.9498, 0.1859), (4.142, 1.2993, 0.1424), (4.0286, 1.513, 0.0816), (3.8827, 1.5687, 0.0033), (3.7045, 1.4606, -0.0923), (4.301, 0, -0.0495), (4.2987, 0.4845, -0.0672), (4.2919, 0.9184, -0.1202), (4.2805, 1.2563, -0.2085), (4.2645, 1.463, -0.3321), (4.244, 1.5169, -0.4911), (4.219, 1.4123, -0.6854), (3.9818, 0, -0.0655), (3.9626, 0.5148, -0.0672), (3.9048, 0.9758, -0.0721), (3.8084, 1.3349, -0.0802), (3.6735, 1.5545, -0.0916), (3.5001, 1.6118, -0.1063), (3.2882, 1.5006, -0.1242), (4.1662, 0, 0.0807), (4.1695, 0.4975, 0.0975), (4.1795, 0.9429, 0.1478), (4.196, 1.2899, 0.2315), (4.2192, 1.5022, 0.3488), (4.249, 1.5575, 0.4997), (4.2854, 1.4501, 0.684), (4.3644, 0, 0.1602), (4.3782, 0.4818, 0.1422), (4.4196, 0.9133, 0.0881), (4.4885, 1.2494, -0.0021), (4.585, 1.455, -0.1283), (4.709, 1.5086, -0.2907), (4.8606, 1.4046, -0.4891), (4.4309, 0, 0.0015), (4.44, 0.4832, -0.0139), (4.4675, 0.9159, -0.0601), (4.5132, 1.2529, -0.1371), (4.5773, 1.459, -0.2448), (4.6596, 1.5128, -0.3834), (4.7603, 1.4085, -0.5528), (3.994, 0, 0.1044), (3.9989, 0.5013, 0.0866), (4.0135, 0.9503, 0.0333), (4.038, 1.3, -0.0556), (4.0721, 1.5139, -0.18), (4.1161, 1.5696, -0.34), (4.1698, 1.4614, -0.5355), (4.3828, 0, 0.1247), (4.3877, 0.5022, 0.1083), (4.4022, 0.9519, 0.0594), (4.4264, 1.3022, -0.0223), (4.4603, 1.5164, -0.1365), (4.5038, 1.5723, -0.2835), (4.5571, 1.4639, -0.463), (4.2945, 0, 0.0821), (4.3052, 0.4736, 0.0697), (4.3372, 0.8977, 0.0328), (4.3906, 1.2281, -0.0288), (4.4653, 1.4301, -0.115), (4.5614, 1.4828, -0.2258), (4.6788, 1.3806, -0.3613), (4.3756, 0, 0.1656), (4.3946, 0.5307, 0.1675), (4.4516, 1.006, 0.1734), (4.5467, 1.3761, 0.1831), (4.6797, 1.6025, 0.1967), (4.8508, 1.6615, 0.2142), (5.0599, 1.547, 0.2355), (4.2737, 0, -0.1854), (4.2585, 0.4987, -0.1798), (4.2128, 0.9453, -0.163), (4.1367, 1.2931, -0.1349), (4.03, 1.5059, -0.0957), (3.893, 1.5613, -0.0452), (3.7254, 1.4537, 0.0165), (4.1589, 0, -0.0027), (4.1771, 0.4916, -0.0105), (4.2317, 0.9318, -0.0337), (4.3227, 1.2747, -0.0723), (4.4502, 1.4844, -0.1265), (4.614, 1.5391, -0.1961), (4.8143, 1.433, -0.2812), (4.1983, 0, 0.1523), (4.183, 0.4873, 0.171), (4.137, 0.9237, 0.2271), (4.0603, 1.2636, 0.3207), (3.953, 1.4715, 0.4516), (3.8149, 1.5257, 0.62), (3.6463, 1.4205, 0.8259), (4.1482, 0, -0.1723), (4.1643, 0.4761, -0.1661), (4.2125, 0.9025, -0.1475), (4.2928, 1.2346, -0.1164), (4.4053, 1.4377, -0.073), (4.5499, 1.4906, -0.0172), (4.7266, 1.3879, 0.0511), (4.0609, 0, 0.1635), (4.0399, 0.4725, 0.1756), (3.9769, 0.8956, 0.2119), (3.8719, 1.2252, 0.2724), (3.7249, 1.4268, 0.3571), (3.5358, 1.4793, 0.466), (3.3048, 1.3773, 0.5992), (4.322, 0, 0.0161), (4.3364, 0.4186, 0.0221), (4.3796, 0.7934, 0.0402), (4.4516, 1.0854, 0.0705), (4.5524, 1.264, 0.1127), (4.6819, 1.3105, 0.1671), (4.8403, 1.2202, 0.2336), (4.3618, 0, 0.1892), (4.3624, 0.4622, 0.1718), (4.3643, 0.8761, 0.1197), (4.3673, 1.1984, 0.0329), (4.3717, 1.3956, -0.0886), (4.3772, 1.447, -0.2448), (4.384, 1.3472, -0.4358), (4.1233, 0, -0.088), (4.1161, 0.4946, -0.1051), (4.0944, 0.9376, -0.1561), (4.0582, 1.2826, -0.2412), (4.0076, 1.4936, -0.3603), (3.9425, 1.5486, -0.5135), (3.8629, 1.4418, -0.7007), (4.3094, 0, -0.1116), (4.2916, 0.4708, -0.1216), (4.2382, 0.8925, -0.1515), (4.1492, 1.2209, -0.2013), (4.0246, 1.4218, -0.271), (3.8644, 1.4741, -0.3607), (3.6686, 1.3725, -0.4703), (4.1763, 0, -0.189), (4.1681, 0.5265, -0.2026), (4.1435, 0.998, -0.2432), (4.1024, 1.3652, -0.311), (4.0449, 1.5899, -0.4058), (3.9709, 1.6484, -0.5278), (3.8806, 1.5347, -0.6768), (4.4086, 0, -0.0556), (4.3845, 0.4203, -0.0523), (4.3122, 0.7968, -0.0422), (4.1917, 1.09, -0.0254), (4.023, 1.2693, -0.0019), (3.806, 1.316, 0.0283), (3.5409, 1.2253, 0.0652), (4.0103, 0, 0.1428), (4.0063, 0.4402, 0.127), (3.9942, 0.8343, 0.0797), (3.9741, 1.1414, 0.0008), (3.946, 1.3291, -0.1097), (3.9099, 1.3781, -0.2518), (3.8657, 1.2831, -0.4254), (4.1221, 0, 0.201), (4.1403, 0.4913, 0.1902), (4.1949, 0.9312, 0.1578), (4.2858, 1.2738, 0.1038), (4.4131, 1.4834, 0.0282), (4.5768, 1.5381, -0.0689), (4.7769, 1.432, -0.1877), (4.2468, 0, 0.1108), (4.2479, 0.5395, 0.1259), (4.2514, 1.0226, 0.171), (4.2573, 1.3989, 0.2462), (4.2655, 1.6291, 0.3516), (4.276, 1.6891, 0.487), (4.2888, 1.5726, 0.6525), (4.2305, 0, 0.2174), (4.2369, 0.5118, 0.1941), (4.2561, 0.9701, 0.1241), (4.2881, 1.3271, 0.0075), (4.3328, 1.5454, -0.1557), (4.3904, 1.6023, -0.3656), (4.4607, 1.4919, -0.6221), (4.0189, 0, 0.0184), (4.0298, 0.5279, 0.0059), (4.0627, 1.0006, -0.0317), (4.1175, 1.3688, -0.0944), (4.1942, 1.594, -0.1821), (4.2929, 1.6527, -0.2948), (4.4134, 1.5387, -0.4327), (4.3979, 0, -0.1027), (4.4043, 0.5384, -0.1171), (4.4235, 1.0205, -0.1602), (4.4554, 1.396, -0.2321), (4.5, 1.6257, -0.3328), (4.5574, 1.6855, -0.4622), (4.6276, 1.5693, -0.6204), (4.3099, 0, -0.0426), (4.3158, 0.4675, -0.0557), (4.3337, 0.8862, -0.0949), (4.3636, 1.2123, -0.1603), (4.4053, 1.4117, -0.2518), (4.459, 1.4637, -0.3694), (4.5247, 1.3628, -0.5133), (4.1644, 0, 0.1341), (4.177, 0.4546, 0.1181), (4.2149, 0.8617, 0.0702), (4.2779, 1.1788, -0.0096), (4.3661, 1.3728, -0.1214), (4.4796, 1.4233, -0.2652), (4.6182, 1.3252, -0.4409), (4.182, 0, 0.0908), (4.1781, 0.5364, 0.1087), (4.1665, 1.0168, 0.1624), (4.1473, 1.391, 0.2519), (4.1202, 1.6199, 0.3773), (4.0855, 1.6795, 0.5384), (4.0431, 1.5637, 0.7353), (4.1666, 0, 0.0781), (4.1755, 0.4466, 0.0592), (4.202, 0.8466, 0.0025), (4.2463, 1.1581, -0.092), (4.3083, 1.3487, -0.2244), (4.388, 1.3983, -0.3945), (4.4854, 1.3019, -0.6024), (4.2189, 0, -0.1035), (4.2182, 0.5017, -0.0841), (4.216, 0.9511, -0.0257), (4.2124, 1.3011, 0.0715), (4.2073, 1.5151, 0.2076), (4.2008, 1.5709, 0.3826), (4.1929, 1.4626, 0.5966), (4.2853, 0, -0.1595), (4.2972, 0.5159, -0.1669), (4.3331, 0.9779, -0.1891), (4.3929, 1.3377, -0.226), (4.4766, 1.5578, -0.2778), (4.5843, 1.6152, -0.3444), (4.7158, 1.5038, -0.4258), (4.2081, 0, -0.1386), (4.2231, 0.4501, -0.1468), (4.2681, 0.8532, -0.1715), (4.3431, 1.1672, -0.2126), (4.4481, 1.3592, -0.2701), (4.5831, 1.4093, -0.344), (4.7481, 1.3121, -0.4344), (4.1588, 0, -0.1154), (4.1499, 0.5116, -0.1038), (4.1233, 0.9698, -0.0693), (4.0789, 1.3267, -0.0116), (4.0168, 1.545, 0.069), (3.9369, 1.6019, 0.1728), (3.8393, 1.4914, 0.2996), (4.2287, 0, -0.1434), (4.2284, 0.537, -0.1587), (4.2273, 1.0179, -0.2046), (4.2256, 1.3925, -0.2812), (4.2231, 1.6216, -0.3883), (4.2199, 1.6813, -0.5261), (4.216, 1.5654, -0.6944), (4.1673, 0, -0.1085), (4.1786, 0.5267, -0.0971), (4.2127, 0.9983, -0.0631), (4.2694, 1.3657, -0.0063), (4.3489, 1.5903, 0.0732), (4.4511, 1.6489, 0.1755), (4.5759, 1.5352, 0.3004), (4.3755, 0, -0.0176), (4.365, 0.515, -0.0366), (4.3333, 0.9762, -0.0937), (4.2806, 1.3355, -0.1889), (4.2068, 1.5552, -0.3221), (4.1119, 1.6124, -0.4934), (3.9959, 1.5013, -0.7028), (4.122, 0, -0.2323), (4.1108, 0.4656, -0.254), (4.0769, 0.8825, -0.3189), (4.0206, 1.2073, -0.4272), (3.9417, 1.4059, -0.5789), (3.8402, 1.4577, -0.7738), (3.7163, 1.3572, -1.0121), (4.2393, 0, 0.1996), (4.2597, 0.5117, 0.2138), (4.3209, 0.9699, 0.2563), (4.4228, 1.3269, 0.3272), (4.5654, 1.5452, 0.4265), (4.7488, 1.6021, 0.554), (4.973, 1.4916, 0.71), (4.3964, 0, 0.1179), (4.3888, 0.534, 0.1354), (4.366, 1.0122, 0.1881), (4.328, 1.3847, 0.2758), (4.2747, 1.6125, 0.3986), (4.2063, 1.6719, 0.5564), (4.1227, 1.5566, 0.7494), (4.2461, 0, 0.0212), (4.2333, 0.4622, 0.0141), (4.1949, 0.8761, -0.007), (4.131, 1.1985, -0.0422), (4.0415, 1.3957, -0.0916), (3.9264, 1.4471, -0.155), (3.7858, 1.3474, -0.2325), (3.9862, 0, -0.0379), (3.9759, 0.4547, -0.0526), (3.9448, 0.8618, -0.0966), (3.8931, 1.1789, -0.1699), (3.8207, 1.3729, -0.2725), (3.7276, 1.4235, -0.4045), (3.6138, 1.3253, -0.5658), (4.0603, 0, 0.05), (4.0522, 0.5088, 0.0265), (4.028, 0.9644, -0.044), (3.9876, 1.3193, -0.1614), (3.9311, 1.5364, -0.3258), (3.8584, 1.593, -0.5372), (3.7695, 1.4831, -0.7956), (4.0127, 0, 0.0471), (4.0042, 0.4682, 0.0349), (3.9789, 0.8876, -0.0017), (3.9367, 1.2142, -0.0627), (3.8775, 1.4139, -0.1481), (3.8015, 1.466, -0.2579), (3.7086, 1.3649, -0.3921)]
        float[] widths = [0.035, 0.0309, 0.0268, 0.0228, 0.0187, 0.0146, 0.0105, 0.035, 0.0309, 0.0268, 0.0228, 0.0187, 0.0146, 0.0105, 0.035, 0.0309, 0.0268, 0.0228, 0.0187, 0.0146, 0.0105, 0.035, 0.0309, 0.0268, 0.0228, 0.0187, 0.0146, 0.0105, 0.035, 0.0309, 0.0268, 0.0228, 0.0187, 0.0146, 0.0105, 0.035, 0.0309, 0.0268, 0.0228, 0.0187, 0.0146, 0.0105, 0.035, 0.0309, 0.0268, 0.0228, 0.0187, 0.0146, 0.0105, 0.035, 0.0309, 0.0268, 0.0228, 0.0187, 0.0146, 0.0105, 0.035, 0.0309, 0.0268, 0.0228, 0.0187, 0.0146, 0.0105, 0.035, 0.0309, 0.0268, 0.0228, 0.0187, 0.0146, 0.0105, 0.035, 0.0309, 0.0268, 0.0228, 0.0187, 0.0146, 0.0105, 0.035, 0.0309, 0.0268, 0.0228, 0.0187, 0.0146, 0.0105, 0.035, 0.0309, 0.0268, 0.0228, 0.0187, 0.0146, 0.0105, 0.035, 0.0309, 0.0268, 0.0228, 0.0187, 0.0146, 0.0105, 0.035, 0.0309, 0.0268, 0.0228, 0.0187, 0.0146, 0.0105, 0.035, 0.0309, 0.0268, 0.0228, 0.0187, 0.0146, 0.0105, 0.035, 0.0309, 0.0268, 0.0228, 0.0187, 0.0146, 0.0105, 0.035, 0.0309, 0.0268, 0.0228, 0.0187, 0.0146, 0.0105, 0.035, 0.0309, 0.0268, 0.0228, 0.0187, 0.0146, 0.0105, 0.035, 0.0309, 0.0268, 0.0228, 0.0187, 0.0146, 0.0105, 0.035, 0.0309, 0.0268, 0.0228, 0.0187, 0.0146, 0.0105, 0.035, 0.0309, 0.0268, 0.0228, 0.0187, 0.0146, 0.0105, 0.035, 0.0309, 0.0268, 0.0228, 0.0187, 0.0146, 0.0105, 0.035, 0.0309, 0.0268, 0.0228, 0.0187, 0.0146, 0.0105, 0.035, 0.0309, 0.0268, 0.0228, 0.0187, 0.0146, 0.0105, 0.035, 0.0309, 0.0268, 0.0228, 0.0187, 0.0146, 0.0105, 0.035, 0.0309, 0.0268, 0.0228, 0.0187, 0.0146, 0.0105, 0.035, 0.0309, 0.0268, 0.0228, 0.0187, 0.0146, 0.0105, 0.035, 0.0309, 0.0268, 0.0228, 0.0187, 0.0146, 0.0105, 0.035, 0.0309, 0.0268, 0.0228, 0.0187, 0.0146, 0.0105, 0.035, 0.0309, 0.0268, 0.0228, 0.0187, 0.0146, 0.0105, 0.035, 0.0309, 0.0268, 0.0228, 0.0187, 0.0146, 0.0105, 0.035, 0.0309, 0.0268, 0.0228, 0.0187, 0.0146, 0.0105, 0.035, 0.0309, 0.0268, 0.0228, 0.0187, 0.0146, 0.0105, 0.035, 0.0309, 0.0268, 0.0228, 0.0187, 0.0146, 0.0105, 0.035, 0.0309, 0.0268, 0.0228, 0.0187, 0.0146, 0.0105, 0.035, 0.0309, 0.0268, 0.0228, 0.0187, 0.0146, 0.0105, 0.035, 0.0309, 0.0268, 0.0228, 0.0187, 0.0146, 0.0105, 0.035, 0.0309, 0.0268, 0.0228, 0.0187, 0.0146, 0.0105, 0.035, 0.0309, 0.0268, 0.0228, 0.0187, 0.0146, 0.0105, 0.035, 0.0309, 0.0268, 0.0228, 0.0187, 0.0146, 0.0105, 0.035, 0.0309, 0.0268, 0.0228, 0.0187, 0.0146, 0.0105, 0.035, 0.0309, 0.0268, 0.0228, 0.0187, 0.0146, 0.0105, 0.035, 0.0309, 0.0268, 0.0228, 0.0187, 0.0146, 0.0105, 0.035, 0.0309, 0.0268, 0.0228, 0.0187, 0.0146, 0.0105, 0.035, 0.0309, 0.0268, 0.0228, 0.0187, 0.0146, 0.0105, 0.035, 0.0309, 0.0268, 0.0228, 0.0187, 0.0146, 0.0105, 0.035, 0.0309, 0.0268, 0.0228, 0.0187, 0.0146, 0.0105] (
            interpolation = "vertex"
        )
        rel material:binding = </World/Looks/mtlx_diffuse_twin>
    }

    def Mesh "Floor" (prepend apiSchemas = ["MaterialBindingAPI"])
    {
        uniform token subdivisionScheme = "none"
        rel material:binding = </World/Looks/Floor>
        int[] faceVertexCounts = [4]
        int[] faceVertexIndices = [0, 1, 2, 3]
        point3f[] points = [(-20, 0, -20), (-20, 0, 20), (20, 0, 20), (20, 0, -20)]
    }

    def DomeLight "Sky"
    {
        float inputs:intensity = 0.3
        asset inputs:texture:file = @sky_gradient.exr@
        token inputs:texture:format = "latlong"
    }

    # In front, above the camera: the primary (R) and secondary (TRT)
    # highlights.
    def RectLight "Key"
    {
        float inputs:width = 3
        float inputs:height = 2
        float inputs:intensity = 6
        double3 xformOp:translate = (-2, 4, 6)
        float3 xformOp:rotateXYZ = (-30, -15, 0)
        uniform token[] xformOpOrder = ["xformOp:translate", "xformOp:rotateXYZ"]
    }

    # Low behind the tufts: the forward-scattered (TT) rim glow.
    def SphereLight "Back"
    {
        float inputs:intensity = 400
        float inputs:radius = 0.15
        color3f inputs:color = (1, 0.92, 0.85)
        double3 xformOp:translate = (0, 1.2, -3)
        uniform token[] xformOpOrder = ["xformOp:translate"]
    }

    def Camera "Cam"
    {
        float focalLength = 35
        float horizontalAperture = 36
        double3 xformOp:translate = (0, 1.1, 9)
        float xformOp:rotateX = -2
        uniform token[] xformOpOrder = ["xformOp:translate", "xformOp:rotateX"]
    }
}

def Scope "Render"
{
    def RenderSettings "settings"
    {
        int2 resolution = (192, 64)
        int crust:samplesPerPixel = 16
        int crust:maxDepth = 8
        int crust:minSamplesPerPixel = 8
        float crust:varianceThreshold = 0.05
        int crust:frame = 0
    }
}
